<?xml version="1.0" encoding="utf-8"?>
<!-- Generator: Adobe Illustrator 27.1.0, SVG Export Plug-In . SVG Version: 6.00 Build 0)  -->
<svg version="1.1" id="Calque_1" xmlns="http://www.w3.org/2000/svg" xmlns:xlink="http://www.w3.org/1999/xlink" x="0px" y="0px"
	 viewBox="0 0 2242.7 803.6" style="enable-background:new 0 0 2242.7 803.6;" xml:space="preserve">
<style type="text/css">
	.st0{display:none;fill:none;stroke:#000000;stroke-width:2;stroke-miterlimit:10;}
	.st1{fill:#48C1EE;}
	.st2{fill:none;stroke:#000000;stroke-width:2;stroke-miterlimit:10;}
	.st3{fill:#D6D6D6;}
	.st4{fill:#0A3240;}
	.st5{fill:#E8CC9B;}
	.st6{fill:#FAEDD7;}
	.st7{fill:none;}
	.st8{fill:#EDEEEF;}
	.st9{fill:none;stroke:#FF6498;stroke-width:2;stroke-miterlimit:10;}
	.st10{fill:none;stroke:#000000;stroke-width:2;stroke-linecap:round;stroke-miterlimit:10;}
</style>
<g id="Calque_3">
	<path class="st0" d="M214.5,792.7h550"/>
	<path class="st1" d="M77.1,430h682.8v37.6H77.1V430L77.1,430z"/>
	<g>
		<path class="st2" d="M759.8,430v37.6H77.1"/>
		<path class="st2" d="M418.5,467.6v324.5"/>
	</g>
	<path class="st2" d="M225.8,428.6h87.3"/>
	<path d="M386.4,403.1H131V255.3h255.3V403.1z"/>
	<path class="st3" d="M243.6,403.1V418l0,0c0,5.8,4.7,10.6,10.6,10.6h35.2l0,0c-5.8,0-10.6-4.7-10.6-10.6v-14.9H243.6z"/>
	<path class="st2" d="M243.6,403.1V418l0,0c0,5.8,4.7,10.6,10.6,10.6"/>
	<path d="M248.7,403.1V418c0,5.8,4.7,10.6,10.6,10.6h35.2l0,0c-5.8,0-10.6-4.7-10.6-10.6v-14.9H248.7z"/>
	<path class="st4" d="M395.1,403.1H139.8V255.3h255.3V403.1z"/>
	<path class="st2" d="M395.1,403.1H139.8V255.3"/>
	<path class="st5" d="M384,392.7H151V265.8h233V392.7z"/>
	<path class="st2" d="M151,265.8h233v126.9"/>
</g>
<g id="Calque_2">
	<path class="st5" d="M1821.9,41.2h210v379.1h-210V41.2z"/>
	<polygon class="st6" points="1821.9,398.3 2031.9,139.8 2031.9,81.5 1821.9,343.4 	"/>
	<polygon class="st6" points="1821.9,316.8 2031.8,61.8 2031.7,50.5 1821.9,303.8 	"/>
	<g>
		<path class="st2" d="M1926.9,38.8v384"/>
		<path class="st2" d="M1821.9,420.4V41.2h210"/>
		<path class="st2" d="M2052.1,166.7h-250.5"/>
		<path class="st2" d="M2052.1,294.9h-250.5"/>
	</g>
</g>
<g id="Calque_2_00000078747880673499987950000000859572705724427163_">
	<path d="M363.4,191.1h293.2v10.4H363.4V191.1z"/>
	<path class="st2" d="M656.7,191.1v10.4H363.4"/>
	<path d="M424.4,201.4l14,7.1v-7.1H424.4z"/>
	<path d="M581.7,201.4l14,7.1v-7.1H581.7z"/>
	<path class="st5" d="M391.3,76.6h16.9v114.5h-16.9V76.6z"/>
	<g>
		<path class="st2" d="M408.2,191.1h-16.9V76.6"/>
		<path class="st2" d="M395.8,98h12.5"/>
		<path class="st2" d="M395.8,102.6h12.5"/>
		<path class="st2" d="M395.8,107.2h12.5"/>
	</g>
	<path class="st7" d="M412.1,76.6H429v114.5h-16.9V76.6z"/>
	<g>
		<path class="st2" d="M429,191.1h-16.9V76.6"/>
		<path class="st2" d="M416.5,98H429"/>
		<path class="st2" d="M416.5,102.6H429"/>
		<path class="st2" d="M416.5,107.2H429"/>
	</g>
	<path class="st5" d="M432.9,76.6h16.9v114.5h-16.9V76.6z"/>
	<g>
		<path class="st2" d="M449.7,191.1h-16.9V76.6"/>
		<path class="st2" d="M437.3,98h12.4"/>
		<path class="st2" d="M437.3,102.6h12.4"/>
		<path class="st2" d="M437.3,107.2h12.4"/>
	</g>
	<path class="st7" d="M453.6,76.6h16.9v114.5h-16.9V76.6z"/>
	<g>
		<path class="st2" d="M470.5,191.1h-16.9V76.6"/>
		<path class="st2" d="M458,98h12.4"/>
		<path class="st2" d="M458,102.6h12.4"/>
		<path class="st2" d="M458,107.2h12.4"/>
	</g>
	<path class="st1" d="M474.4,76.6h16.9v114.5h-16.9V76.6z"/>
	<g>
		<path class="st2" d="M491.2,191.1h-16.9V76.6"/>
		<path class="st2" d="M478.8,98h12.4"/>
		<path class="st2" d="M478.8,102.6h12.4"/>
		<path class="st2" d="M478.8,107.2h12.4"/>
	</g>
	<path class="st7" d="M495.1,76.6H512v114.5h-16.9V76.6z"/>
	<g>
		<path class="st2" d="M512,191.1h-16.9V76.6"/>
		<path class="st2" d="M499.6,98H512"/>
		<path class="st2" d="M499.6,102.6H512"/>
		<path class="st2" d="M499.6,107.2H512"/>
	</g>
	<path class="st5" d="M515.9,76.6h16.9v114.5h-16.9V76.6z"/>
	<g>
		<path class="st2" d="M532.8,191.1h-16.9V76.6"/>
		<path class="st2" d="M520.3,98h12.4"/>
		<path class="st2" d="M520.3,102.6h12.4"/>
		<path class="st2" d="M520.3,107.2h12.4"/>
	</g>
	<path class="st7" d="M536.6,76.6h16.9v114.5h-16.9V76.6z"/>
	<g>
		<path class="st2" d="M553.5,191.1h-16.9V76.6"/>
		<path class="st2" d="M541.1,98h12.5"/>
		<path class="st2" d="M541.1,102.6h12.5"/>
		<path class="st2" d="M541.1,107.2h12.5"/>
	</g>
	<path class="st5" d="M555.7,81.2l16.2-4.7l31.8,109.9l-16.2,4.7L555.7,81.2L555.7,81.2z"/>
	<g>
		<path class="st2" d="M603.7,186.4l-16.2,4.7L555.7,81.2"/>
		<path class="st2" d="M565.9,100.6l12-3.5"/>
		<path class="st2" d="M567.2,105l12-3.5"/>
		<path class="st2" d="M568.5,109.4l12-3.5"/>
	</g>
	<path class="st2" d="M1631,792.7h358.5"/>
	<path class="st1" d="M1676.8,597.2c-108.2-40.4,34.6-58.3,34.6-58.3s36-172.9,100-184.9c63.9-12.1,115,166.3,57.4,224.5
		S1676.8,597.2,1676.8,597.2L1676.8,597.2L1676.8,597.2z"/>
	<path class="st2" d="M1868.9,578.5c-57.5,58.2-192,18.7-192,18.7"/>
	<path class="st2" d="M1772.8,792.8V610.3"/>
	<path d="M1671.8,584.8c35.3-12.1,39.7-46,39.7-46s-97.4,12.2-70.4,39.2C1649.1,586.1,1661.1,588.5,1671.8,584.8L1671.8,584.8z"/>
</g>
<g id="Calque_1_00000100352759729023046620000014757851062494209438_">
	<g id="Calque_4">
		<g>
			<path class="st2" d="M1571.1,618.6V501.7c0-13.5-4-26.7-11.4-38c-10.9-16.6-27.9-28.4-47.4-32.8l-1.2-0.3c0,0-3.2,47.2,48,53.5"
				/>
			<path class="st2" d="M1571.1,634.3V517.5c0-13.5,4-26.7,11.4-38c10.9-16.6,27.9-28.4,47.4-32.8l1.2-0.3c0,0,3.2,47.2-48,53.5"/>
		</g>
		<path class="st2" d="M1571.1,610.5v-67.9c0-7.9-2.3-15.5-6.6-22.1c-6.4-9.7-16.2-16.5-27.5-19l-0.7-0.2c0,0-1.8,27.4,27.9,31"/>
		<path class="st1" d="M1531.8,602.9h78.6v189.8h-78.6V602.9z"/>
		<path class="st2" d="M258.7,792.7H1631"/>
	</g>
	<g id="Calque_3-2">
		<path class="st5" d="M1000.7,795.9h84l89.8-228.9V261l-95.3,65.7c0,0-69.8,292.8-65.3,448.8L1000.7,795.9L1000.7,795.9z"/>
		<path d="M1109,733.9l65.5-166.9V362.6c-5.3-3.6-11.5-5.6-18-5.7c-42.7,0-77.3,94.4-77.3,210.8
			C1079.1,635.2,1090.9,695.3,1109,733.9L1109,733.9z"/>
		<path class="st5" d="M1244.9,286.3c0,90.5-11.1,509.5-11.1,509.5h-101.4l11.9-17.5c-57-156-36.8-485.5-36.8-485.5L1244.9,286.3
			L1244.9,286.3z"/>
		<path class="st5" d="M1134.7,8.5l53,13v72.3l-53-13V8.5L1134.7,8.5z"/>
		<circle cx="1164.6" cy="51.3" r="1.4"/>
		<circle cx="1142.8" cy="51.3" r="1.4"/>
		<path class="st2" d="M1138.3,38h10.9v21.9"/>
		<path class="st2" d="M1156.4,38h11"/>
		<path class="st8" d="M1191.6,48.7v0.7l0,0c0,4.1-3.3,7.4-7.4,7.4v-7.6C1184.2,44.5,1191.2,44,1191.6,48.7z"/>
		<g>
			<path class="st2" d="M1191.6,49.3L1191.6,49.3c0,4.1-3.3,7.4-7.4,7.4"/>
			<path class="st9" d="M1161.5,57.7L1161.5,57.7c0,4.2-3.4,7.5-7.5,7.5"/>
			<g>
				<path class="st2" d="M1187.7,93.8l-13.3-3.3"/>
				<path class="st10" d="M1154,61l-4.8-1.2"/>
				<path class="st2" d="M1134.6,53.7c-4.2,21.8-2,40,25,39.3s22.5-36.3,22.5-36.3"/>
				<path class="st2" d="M1175.8,57.7c2.3-5.9,1.7-16.6,1.7-16.6c-5.7-1.8-6.5-12.8-6.5-12.8s-39.8-0.8-41.5-12.3
					c-1.7-11.5,42.5-21.5,56.7-9.8c14.2,11.7,4.2,40.2,4.2,40.2"/>
			</g>
		</g>
		<path class="st1" d="M1243.2,170.5c0-5.7-0.7-11.5-2.1-17c-9.4-38.3-48.1-61.7-86.4-52.3c-44.4,10.9-75.6,50.8-75.6,96.5v129
			l164.1-40.3V170.5L1243.2,170.5L1243.2,170.5z"/>
		<path class="st4" d="M1120.8,261l-41.7,5.6l-19.8-67l44.7-5.5l11.9,43.4"/>
		<g>
			<path class="st2" d="M1144.3,778.4c-57-156-36.8-485.5-36.8-485.5"/>
			<path class="st2" d="M1182.4,203.4l17.7,39.3l-70.8,8.1c0,0-4.5-5.3-10.5-12s-4,10.6-4,10.6s-31.3-20.7-27.3,11.6
				s180,101.7,197.3,25.3c17.3-76.4-65.3-169-65.3-169"/>
			<path class="st2" d="M1079.1,290c-25.3,9.1-50.3-24.5-46.8-77.2s46.8-41.8,46.8-41.8c6.1,1.8,10.4,7.2,10.9,13.5
				c1,11.1-8.1,1-10.9,0c0,0-3.3,13.3-19.8,5.2"/>
			<path class="st2" d="M1072.3,170.2c11.3-20.2,26.8-37.7,45.5-51.2"/>
		</g>
	</g>
	<g id="Calque_1-2">
		<path class="st4" d="M1550,762.6c2-198-81.7-432.9-81.7-432.9l-60.3-34.1l-14,224l74.3,283l106.7-30L1550,762.6z"/>
		<path d="M1476.7,567.6c0-68-31.4-126.5-76.2-151.7l-6.5,103.7l43.9,167.2C1461.8,656.7,1476.7,614.4,1476.7,567.6L1476.7,567.6
			L1476.7,567.6z"/>
		<path class="st4" d="M1441.7,295.9c0,0,20.2,329.5-36.8,485.5l11.9,17.5h-101.5c0,0-11.1-419.1-11.1-509.5L1441.7,295.9z"/>
		<path class="st5" d="M1408,41v42.8l-53,13V24.6l53-13V41z"/>
		<circle cx="1378" cy="54.4" r="1.4"/>
		<circle cx="1399.8" cy="54.4" r="1.4"/>
		<path class="st2" d="M1393.4,62.8V40.9h11"/>
		<path class="st2" d="M1375.4,41h11"/>
		<path class="st5" d="M1358.4,52.2v7.6c-4.1,0-7.4-3.3-7.4-7.4v-0.7C1351.5,47.1,1358.4,47.5,1358.4,52.2z"/>
		<g>
			<path class="st2" d="M1358.4,59.8c-4.1,0-7.4-3.3-7.4-7.4"/>
			<path class="st9" d="M1388.6,68.2c-4.1,0-7.5-3.4-7.5-7.5"/>
			<g>
				<path class="st2" d="M1408,83.8l-53,13"/>
				<path class="st10" d="M1393.4,62.8l-4.8,1.2"/>
			</g>
		</g>
		<path class="st5" d="M1304.3,173.5v115.8l164.1,40.3v-129c0-45.7-31.2-85.6-75.6-96.5c-38.3-9.4-77,14-86.4,52.3
			C1304.9,162.1,1304.3,167.8,1304.3,173.5L1304.3,173.5L1304.3,173.5z"/>
		<g>
			<path class="st2" d="M1441.7,295.9c0,0,20.2,329.5-36.8,485.5"/>
			<path class="st2" d="M1358.4,52.2c0,0,15.9-5.9,12.9-24.1h38"/>
			<path class="st2" d="M1351.7,49.9c0,0-17-42.5,22.2-41s41.7,2.2,43,9s-8.9,14.3-8.9,14.3"/>
			<path class="st2" d="M1351,106.5c0,0-103,35.1-119,133.1s108,175,108,175l34.7-49l-55.7-101l55.7-61"/>
			<path class="st2" d="M1340,414.6l46.7-66"/>
			<path class="st2" d="M1434.1,125.6c0,0,70.9,37,80.9,107l24-91c0,0-10-20,0-22c0,0-1-41.6,26-22.8s48,271.8-89,255.8"/>
		</g>
	</g>
	<g id="Calque_2-2">
		<g>
			<path class="st4" d="M931.7,294.1c0,0,98.4,279.8,104.4,459.8l21.6,14l-80.8,35.7L876.1,574.4l-14.6-183l5-121.5"/>
			<path class="st4" d="M905,300.6c0,0,20.2,329.5-36.8,485.5l11.9,17.5H778.7c0,0-11.1-419.1-11.1-509.5L905,300.6z"/>
			<path class="st5" d="M876.1,45.7v42.8l-53,13V29.2l53-13V45.7z"/>
		</g>
		<circle cx="846.2" cy="59.1" r="1.4"/>
		<circle cx="868" cy="59.1" r="1.4"/>
		<path class="st2" d="M861.6,67.5V45.6h11"/>
		<path class="st2" d="M843.5,45.7h11"/>
		<path class="st5" d="M826.6,56.9v7.6c-4.1,0-7.4-3.3-7.4-7.4v-0.7C819.6,51.8,826.6,52.3,826.6,56.9z"/>
		<g>
			<path class="st2" d="M826.6,64.5c-4.1,0-7.4-3.3-7.4-7.4"/>
			<path class="st9" d="M856.8,72.9c-4.1,0-7.5-3.4-7.5-7.5"/>
			<g>
				<path class="st2" d="M876.1,88.5l-53,13"/>
				<path class="st10" d="M861.6,67.6l-4.8,1.2"/>
			</g>
		</g>
		<path class="st5" d="M931.7,178.2V294l-164.1,40.3v-129c0-45.7,31.2-85.6,75.6-96.5c38.3-9.4,77,14,86.4,52.3
			C931,166.8,931.6,172.5,931.7,178.2L931.7,178.2z"/>
		<g>
			<path class="st2" d="M905,300.6c0,0,20.2,329.5-36.8,485.5"/>
			<path class="st2" d="M876.1,31.4l6.6-18.2c0,0-54.8-7.2-68.8,21.2l7.6,19"/>
			<path class="st2" d="M826.5,55.8c0,0,8.4-8,9.9-18.3l33-4"/>
			<path class="st2" d="M822.9,116.3c0,0-44.2,21.6-92,76.9c0,0-1.7-98-11.7-110s-12,0-12,0s-32.9-20.8-35.4-5.3
				s13.8,32.4,13.8,32.4s-33.9,122.5-2.8,159.6c31.1,37.1,143.7-24.6,143.7-24.6"/>
			<path class="st2" d="M888.3,112.5c3.4,1.6,43.9,21.3,66.6,60"/>
			<path class="st2" d="M931.7,242.5c0,0,39.2,18.7,59.2,3.3s5.3-148,5.3-148s27.3-23.4,21.3-25.7s-34.7,0.8-34.7,0.8
				s-8-13.6-13.3,0s-29.3,72.3-27.7,81.3"/>
		</g>
		<path d="M808.5,254.3c0,0-2.3,37.8-40.6,73.5v-56.9C767.9,271,803.9,256.5,808.5,254.3L808.5,254.3z"/>
	</g>
</g>
<g>
	<path class="st1" d="M651.1,150.8l-68.2-4.5c-5.1,29.6,17.3,118.8,17.3,118.8l53.5-45.5C627.9,173.4,651.1,150.8,651.1,150.8
		L651.1,150.8z"/>
	<path class="st5" d="M558.2,299.3c0,0,144.2,293.4-36.4,306.9c-180.6,13.5-231.3-141.8-231.3-141.8l-23.9-11.2l74.6-49.9
		l101.3,49.9l33.3-150.2"/>
	<path d="M481.7,416.3c-12.7,0-24.7,6.9-35.3,19.1l-3.9,17.8l-6.5-3.2c-18.7,30.9-30.8,80.2-30.8,135.8v2.2
		c30.9,13.8,69.3,21.9,116.6,18.3c13.9-1,25.9-3.8,36.2-7.9c0.1-4.2,0.2-8.4,0.2-12.6C558.2,492.1,523.9,416.3,481.7,416.3
		L481.7,416.3z"/>
	<path class="st5" d="M532.4,305.6c0,0,19.5,318-35.5,468.6l11.5,16.9h-97.9c0,0-10.7-404.5-10.7-491.8L532.4,305.6z"/>
	<path class="st5" d="M501.3,59.5v41.3l-51.2,12.6V43.7l51.2-12.6V59.5z"/>
	<circle cx="472.4" cy="72.5" r="1.4"/>
	<circle cx="493.4" cy="72.5" r="1.4"/>
	<path class="st2" d="M487.2,80.6V59.5h10.6"/>
	<path class="st2" d="M469.8,59.5h10.6"/>
	<path class="st5" d="M453.5,70.4v7.3c-4,0-7.2-3.2-7.2-7.2v0c0-0.2,0-0.4,0-0.6C446.7,65.4,453.5,65.9,453.5,70.4z"/>
	<g>
		<path class="st2" d="M453.5,77.7c-4,0-7.2-3.2-7.2-7.2v0"/>
		<path class="st9" d="M482.6,85.8c-4,0-7.2-3.2-7.2-7.2c0,0,0,0,0,0"/>
		<g>
			<path class="st2" d="M501.3,100.9l-51.2,12.6"/>
			<path class="st10" d="M487.2,80.7l-4.6,1.1"/>
			<path class="st2" d="M455.3,68.3c0,0,24.1-10.9,31.2-20.3v6.4c0,0,13-4.8,16.2-10.5"/>
			<path class="st2" d="M501.3,55.3c0,0,11.3-4.8,8.2-15.3c-3.1-10.5-26.9-18.5-44.7-13.5c0,0-52.3,10.2-14.7,64.8"/>
		</g>
	</g>
	<path class="st4" d="M558.2,187.5v111.8l-158.4,38.9V213.7c0-44.2,30.1-82.6,73-93.1c37-9.1,74.3,13.5,83.4,50.5
		C557.5,176.4,558.2,181.9,558.2,187.5L558.2,187.5z"/>
	<g>
		<path class="st2" d="M410.5,791.1c0,0-10.7-404.5-10.7-491.8"/>
		<path class="st2" d="M532.4,305.6c0,0,19.5,318-35.5,468.6l11.5,16.9"/>
		<path class="st2" d="M439.6,135.9c0,0-69.7,40.1-57.5,126.3c12.2,86.2,177,54.1,217.5,6.4l3.2-20.6c0,0,22.9-28,9.8-22
			c-13,5.9-144.9,15.6-144.9,15.6l2-30.2"/>
		<path class="st2" d="M538.8,139.6c0,0,41.3,32.5,53,90.4"/>
		<path class="st2" d="M565.3,316c0,0,63.2,15.3,90.9-56.4c23.2-60.1,5.1-88.8-3.2-90.7s-10.9,9.7-10.9,9.7"/>
	</g>
</g>
</svg>
