<?xml version="1.0" encoding="UTF-8"?>
<svg xmlns="http://www.w3.org/2000/svg" viewBox="0 0 1684.26 803.63">

<defs>
<style>.cls-1{fill:#edeeef;}.cls-2{stroke:#ff6498;}.cls-2,.cls-3,.cls-4{stroke-miterlimit:10;stroke-width:2px;}.cls-2,.cls-3,.cls-4,.cls-5{fill:none;}.cls-6{fill:#faedd7;}.cls-7{fill:#d6d6d6;}.cls-3{stroke-linecap:round;}.cls-3,.cls-4{stroke:#000;}.cls-8{fill:#e8cc9b;}.cls-9{fill:#000000;}.cls-10{fill:#0a3240;}
</style>
</defs>

<g id="Calque_3"><path class="cls-8" d="m1362.63,33.09h209.99v379.12h-209.99V33.09Z"/><polygon class="cls-6" points="1362.62 390.14 1572.6 131.65 1572.62 73.39 1362.62 335.22 1362.62 390.14"/><polygon class="cls-6" points="1362.62 308.67 1572.54 53.6 1572.45 42.37 1362.62 295.63 1362.62 308.67"/><g><path class="cls-4" d="m1467.62,30.65v384"/><path class="cls-4" d="m1362.62,412.21V33.09h210"/><path class="cls-4" d="m1592.87,158.51h-250.5"/><path class="cls-4" d="m1592.87,286.79h-250.5"/></g><path class="cls-4" d="m137.46,792.73h549.99"/><path class="cls-9" d="m0,429.97h682.75v37.61H0v-37.61Z"/><g><path class="cls-4" d="m682.76,429.97v37.61H0"/><path class="cls-4" d="m341.38,467.58v324.52"/></g><path class="cls-4" d="m148.69,428.56h87.32"/><path d="m309.28,403.12H53.94v-147.79h255.34v147.79Z"/><path class="cls-7" d="m166.5,403.12v14.89h0c0,5.83,4.73,10.56,10.56,10.56h35.16s0,0,0,0c-5.83,0-10.56-4.73-10.56-10.56v-14.89s-35.16,0-35.16,0Z"/><path class="cls-4" d="m166.5,403.12v14.89h0c0,5.83,4.73,10.56,10.56,10.56"/><path d="m171.58,403.12v14.89c0,5.83,4.73,10.56,10.56,10.56h35.16s0,0,0,0c-5.83,0-10.56-4.73-10.56-10.56v-14.89s-35.16,0-35.16,0Z"/><path class="cls-10" d="m318.07,403.12H62.73v-147.79h255.34v147.79Z"/><path class="cls-4" d="m318.07,403.12H62.73v-147.79"/><path class="cls-8" d="m306.89,392.69H73.91v-126.94h232.98v126.94Z"/><path class="cls-4" d="m73.91,265.75h232.98v126.94"/></g><g id="Calque_2"><path class="cls-9" d="m58.17,191.06h293.25v10.37H58.17v-10.37Z"/><path class="cls-4" d="m351.42,191.06v10.37H58.17"/><path d="m119.14,201.43l14.02,7.11v-7.11h-14.02Z"/><path d="m276.43,201.43l14.02,7.11v-7.11h-14.02Z"/><path class="cls-8" d="m86.1,76.6h16.87v114.46h-16.87v-114.46Z"/><g><path class="cls-4" d="m102.97,191.06h-16.87v-114.45"/><path class="cls-4" d="m90.52,98.02h12.45"/><path class="cls-4" d="m90.52,102.62h12.45"/><path class="cls-4" d="m90.52,107.23h12.45"/></g><path class="cls-5" d="m106.86,76.6h16.87v114.46h-16.87v-114.46Z"/><g><path class="cls-4" d="m123.73,191.06h-16.87v-114.45"/><path class="cls-4" d="m111.28,98.02h12.45"/><path class="cls-4" d="m111.28,102.62h12.45"/><path class="cls-4" d="m111.28,107.23h12.45"/></g><path class="cls-8" d="m127.62,76.6h16.87v114.46h-16.87v-114.46Z"/><g><path class="cls-4" d="m144.49,191.06h-16.87v-114.45"/><path class="cls-4" d="m132.04,98.02h12.45"/><path class="cls-4" d="m132.04,102.62h12.45"/><path class="cls-4" d="m132.04,107.23h12.45"/></g><path class="cls-5" d="m148.38,76.6h16.87v114.46h-16.87v-114.46Z"/><g><path class="cls-4" d="m165.25,191.06h-16.87v-114.45"/><path class="cls-4" d="m152.8,98.02h12.45"/><path class="cls-4" d="m152.8,102.62h12.45"/><path class="cls-4" d="m152.8,107.23h12.45"/></g><path class="cls-9" d="m169.14,76.6h16.87v114.46h-16.87v-114.46Z"/><g><path class="cls-4" d="m186.01,191.06h-16.87v-114.45"/><path class="cls-4" d="m173.55,98.02h12.45"/><path class="cls-4" d="m173.55,102.62h12.45"/><path class="cls-4" d="m173.55,107.23h12.45"/></g><path class="cls-5" d="m189.9,76.6h16.87v114.46h-16.87v-114.46Z"/><g><path class="cls-4" d="m206.76,191.06h-16.87v-114.45"/><path class="cls-4" d="m194.32,98.02h12.45"/><path class="cls-4" d="m194.32,102.62h12.45"/><path class="cls-4" d="m194.32,107.23h12.45"/></g><path class="cls-8" d="m210.66,76.6h16.87v114.46h-16.87v-114.46Z"/><g><path class="cls-4" d="m227.52,191.06h-16.87v-114.45"/><path class="cls-4" d="m215.07,98.02h12.45"/><path class="cls-4" d="m215.07,102.62h12.45"/><path class="cls-4" d="m215.07,107.23h12.45"/></g><path class="cls-5" d="m231.41,76.6h16.87v114.46h-16.87v-114.46Z"/><g><path class="cls-4" d="m248.28,191.06h-16.87v-114.45"/><path class="cls-4" d="m235.83,98.02h12.45"/><path class="cls-4" d="m235.83,102.62h12.45"/><path class="cls-4" d="m235.83,107.23h12.45"/></g><path class="cls-8" d="m250.46,81.21l16.2-4.69,31.84,109.94-16.2,4.69-31.84-109.94Z"/><g><path class="cls-4" d="m298.5,186.45l-16.2,4.69-31.84-109.94"/><path class="cls-4" d="m260.66,100.55l11.96-3.46"/><path class="cls-4" d="m261.94,104.98l11.96-3.46"/><path class="cls-4" d="m263.22,109.4l11.96-3.46"/></g><path class="cls-4" d="m1325.74,792.73h358.52"/><path class="cls-9" d="m1371.61,597.16c-108.23-40.4,34.61-58.3,34.61-58.3,0,0,36.04-172.85,99.97-184.92,63.93-12.07,114.98,166.3,57.44,224.54-57.54,58.24-192.02,18.69-192.02,18.69h0Z"/><path class="cls-4" d="m1563.62,578.48c-57.54,58.24-192.02,18.69-192.02,18.69"/><path class="cls-4" d="m1467.61,792.77v-182.51"/><path d="m1366.54,584.82c35.27-12.12,39.66-45.96,39.66-45.96,0,0-97.37,12.2-70.38,39.2,8.02,8.02,20,10.44,30.72,6.75Z"/></g><g id="Calque_1"><g id="Calque_4"><g><path class="cls-4" d="m1265.84,618.63v-116.9c0-13.5-4-26.7-11.4-38-10.9-16.6-27.9-28.4-47.4-32.8l-1.2-.3s-3.2,47.2,48,53.5"/><path class="cls-4" d="m1265.84,634.33v-116.8c0-13.5,4-26.7,11.4-38,10.9-16.6,27.9-28.4,47.4-32.8l1.2-.3s3.2,47.2-48,53.5"/></g><path class="cls-4" d="m1265.84,610.53v-67.9c0-7.9-2.3-15.5-6.6-22.1-6.4-9.7-16.2-16.5-27.5-19l-.7-.2s-1.8,27.4,27.9,31"/><path class="cls-9" d="m1226.54,602.93h78.6v189.8h-78.6v-189.8Z"/><path class="cls-4" d="m414.04,792.73h911.7"/></g><g id="Calque_3-2"><path class="cls-8" d="m695.44,795.93h84l89.8-228.9v-306l-95.3,65.7s-69.8,292.8-65.3,448.8l-13.2,20.4Z"/><path d="m803.74,733.93l65.5-166.9v-204.4c-5.3-3.6-11.5-5.6-18-5.7-42.7,0-77.3,94.4-77.3,210.8-.1,67.5,11.7,127.6,29.8,166.2Z"/><path class="cls-8" d="m939.64,286.33c0,90.5-11.1,509.5-11.1,509.5h-101.4l11.9-17.5c-57-156-36.8-485.5-36.8-485.5l137.4-6.5Z"/><path class="cls-8" d="m829.44,8.53l53,13v72.3l-53-13V8.53h0Z"/><circle cx="859.34" cy="51.33" r="1.4"/><circle cx="837.54" cy="51.33" r="1.4"/><path class="cls-4" d="m833.04,38.03h10.9v21.9"/><path class="cls-4" d="m851.14,38.03h11"/><path class="cls-1" d="m886.34,48.73v.7h0c0,4.1-3.3,7.4-7.4,7.4v-7.6c0-4.7,7-5.2,7.4-.5Z"/><g><path class="cls-4" d="m886.34,49.33h0c0,4.1-3.3,7.4-7.4,7.4"/><path class="cls-2" d="m856.24,57.73h0c0,4.2-3.4,7.5-7.5,7.5"/><g><path class="cls-4" d="m882.44,93.83l-13.3-3.3"/><path class="cls-3" d="m848.74,61.03l-4.8-1.2"/><path class="cls-4" d="m829.34,53.73c-4.2,21.8-2,40,25,39.3s22.5-36.3,22.5-36.3"/><path class="cls-4" d="m870.54,57.73c2.3-5.9,1.7-16.6,1.7-16.6-5.7-1.8-6.5-12.8-6.5-12.8,0,0-39.8-.8-41.5-12.3s42.5-21.5,56.7-9.8,4.2,40.2,4.2,40.2"/></g></g><path class="cls-9" d="m937.94,170.53c0-5.7-.7-11.5-2.1-17-9.4-38.3-48.1-61.7-86.4-52.3-44.4,10.9-75.6,50.8-75.6,96.5v129l164.1-40.3v-115.9h0Z"/><path class="cls-10" d="m815.54,261.03l-41.7,5.6-19.8-67,44.7-5.5,11.9,43.4"/><g><path class="cls-4" d="m839.04,778.43c-57-156-36.8-485.5-36.8-485.5"/><path class="cls-4" d="m877.14,203.43l17.7,39.3-70.8,8.1s-4.5-5.3-10.5-12-4,10.6-4,10.6c0,0-31.3-20.7-27.3,11.6s180,101.7,197.3,25.3c17.3-76.4-65.3-169-65.3-169"/><path class="cls-4" d="m773.84,290.03c-25.3,9.1-50.3-24.5-46.8-77.2s46.8-41.8,46.8-41.8c6.1,1.8,10.4,7.2,10.9,13.5,1,11.1-8.1,1-10.9,0,0,0-3.3,13.3-19.8,5.2"/><path class="cls-4" d="m767.04,170.23c11.3-20.2,26.8-37.7,45.5-51.2"/></g></g><g id="Calque_1-2"><path class="cls-10" d="m1244.74,762.63c2-198-81.7-432.9-81.7-432.9l-60.3-34.1-14,224,74.3,283,106.7-30-25-10Z"/><path d="m1171.44,567.63c0-68-31.4-126.5-76.2-151.7l-6.5,103.7,43.9,167.2c23.9-30.1,38.8-72.4,38.8-119.2h0Z"/><path class="cls-10" d="m1136.44,295.93s20.2,329.5-36.8,485.5l11.9,17.5h-101.5s-11.1-419.1-11.1-509.5l137.5,6.5Z"/><path class="cls-8" d="m1102.74,41.03v42.8l-53,13V24.63l53-13v29.4Z"/><circle cx="1072.74" cy="54.43" r="1.4"/><circle cx="1094.54" cy="54.43" r="1.4"/><path class="cls-4" d="m1088.14,62.83v-21.9h11"/><path class="cls-4" d="m1070.14,41.03h11"/><path class="cls-8" d="m1053.14,52.23v7.6c-4.1,0-7.4-3.3-7.4-7.4v-.7c.5-4.6,7.4-4.2,7.4.5Z"/><g><path class="cls-4" d="m1053.14,59.83c-4.1,0-7.4-3.3-7.4-7.4"/><path class="cls-2" d="m1083.34,68.23c-4.1,0-7.5-3.4-7.5-7.5"/><g><path class="cls-4" d="m1102.74,83.83l-53,13"/><path class="cls-3" d="m1088.14,62.83l-4.8,1.2"/></g></g><path class="cls-8" d="m999.04,173.53v115.8l164.1,40.3v-129c0-45.7-31.2-85.6-75.6-96.5-38.3-9.4-77,14-86.4,52.3-1.5,5.7-2.1,11.4-2.1,17.1h0Z"/><g><path class="cls-4" d="m1136.44,295.93s20.2,329.5-36.8,485.5"/><path class="cls-4" d="m1053.14,52.23s15.9-5.9,12.9-24.1h38"/><path class="cls-4" d="m1046.44,49.93s-17-42.5,22.2-41,41.7,2.2,43,9-8.9,14.3-8.9,14.3"/><path class="cls-4" d="m1045.74,106.53s-103,35.1-119,133.1,108,175,108,175l34.7-49-55.7-101,55.7-61"/><path class="cls-4" d="m1034.74,414.63l46.7-66"/><path class="cls-4" d="m1128.84,125.63s70.9,37,80.9,107l24-91s-10-20,0-22c0,0-1-41.6,26-22.8s48,271.8-89,255.8"/></g></g><g id="Calque_2-2"><g><path class="cls-10" d="m626.44,294.13s98.4,279.8,104.4,459.8l21.6,14-80.8,35.7-100.8-229.2-14.6-183,5-121.5"/><path class="cls-10" d="m599.74,300.63s20.2,329.5-36.8,485.5l11.9,17.5h-101.4s-11.1-419.1-11.1-509.5l137.4,6.5Z"/><path class="cls-8" d="m570.84,45.73v42.8l-53,13V29.23l53-13v29.5Z"/></g><circle cx="540.94" cy="59.13" r="1.4"/><circle cx="562.74" cy="59.13" r="1.4"/><path class="cls-4" d="m556.34,67.53v-21.9h11"/><path class="cls-4" d="m538.24,45.73h11"/><path class="cls-8" d="m521.34,56.93v7.6c-4.1,0-7.4-3.3-7.4-7.4v-.7c.4-4.6,7.4-4.1,7.4.5Z"/><g><path class="cls-4" d="m521.34,64.53c-4.1,0-7.4-3.3-7.4-7.4"/><path class="cls-2" d="m551.54,72.93c-4.1,0-7.5-3.4-7.5-7.5"/><g><path class="cls-4" d="m570.84,88.53l-53,13"/><path class="cls-3" d="m556.34,67.63l-4.8,1.2"/></g></g><path class="cls-8" d="m626.44,178.23v115.8l-164.1,40.3v-129c0-45.7,31.2-85.6,75.6-96.5,38.3-9.4,77,14,86.4,52.3,1.4,5.7,2,11.4,2.1,17.1h0Z"/><g><path class="cls-4" d="m599.74,300.63s20.2,329.5-36.8,485.5"/><path class="cls-4" d="m570.84,31.43l6.6-18.2s-54.8-7.2-68.8,21.2l7.6,19"/><path class="cls-4" d="m521.24,55.83s8.4-8,9.9-18.3l33-4"/><path class="cls-4" d="m517.64,116.33s-44.2,21.6-92,76.9c0,0-1.7-98-11.7-110s-12,0-12,0c0,0-32.9-20.8-35.4-5.3s13.8,32.4,13.8,32.4c0,0-33.9,122.5-2.8,159.6,31.1,37.1,143.7-24.6,143.7-24.6"/><path class="cls-4" d="m583.04,112.53c3.4,1.6,43.9,21.3,66.6,60"/><path class="cls-4" d="m626.44,242.53s39.2,18.7,59.2,3.3,5.3-148,5.3-148c0,0,27.3-23.4,21.3-25.7s-34.7.8-34.7.8c0,0-8-13.6-13.3,0s-29.3,72.3-27.7,81.3"/></g><path d="m503.24,254.33s-2.3,37.8-40.6,73.5v-56.9c0,.1,36-14.4,40.6-16.6Z"/></g></g></svg>