<?xml version="1.0" encoding="utf-8"?>
<!-- Generator: Adobe Illustrator 27.1.0, SVG Export Plug-In . SVG Version: 6.00 Build 0)  -->
<svg version="1.1" xmlns="http://www.w3.org/2000/svg" xmlns:xlink="http://www.w3.org/1999/xlink" x="0px" y="0px"
	 viewBox="0 0 1000 1000" style="enable-background:new 0 0 1000 1000;" xml:space="preserve">
<style type="text/css">
	.st0{fill:none;stroke:#000000;stroke-width:2;stroke-miterlimit:10;}
	.st1{fill:#0DF1FF;}
	.st2{fill:#E8CC9B;}
	.st3{fill:#EDEEEF;}
	.st4{fill:none;stroke:#FF6498;stroke-width:2;stroke-miterlimit:10;}
	.st5{fill:none;stroke:#000000;stroke-width:2;stroke-linecap:round;stroke-miterlimit:10;}
	.st6{fill:#0A3240;}
</style>
<g id="Calque_4">
	<g>
		<path class="st0" d="M920.3,768V651.1c0-13.5-4-26.7-11.4-38c-10.9-16.6-27.9-28.4-47.4-32.8l-1.2-0.3c0,0-3.2,47.2,48,53.5"/>
		<path class="st0" d="M920.3,783.7V666.9c0-13.5,4-26.7,11.4-38c10.9-16.6,27.9-28.4,47.4-32.8l1.2-0.3c0,0,3.2,47.2-48,53.5"/>
	</g>
	<path class="st0" d="M920.3,759.9V692c0-7.9-2.3-15.5-6.6-22.1c-6.4-9.7-16.2-16.5-27.5-19l-0.7-0.2c0,0-1.8,27.4,27.9,31"/>
	<path class="st1" d="M881,752.3h78.6v189.8H881V752.3z"/>
	<path class="st0" d="M68.5,942.1h911.7"/>
</g>
<g id="Calque_3">
	<path class="st2" d="M349.9,945.3h84l89.8-228.9v-306l-95.3,65.7c0,0-69.8,292.8-65.3,448.8L349.9,945.3z"/>
	<path d="M458.2,883.3l65.5-166.9V512c-5.3-3.6-11.5-5.6-18-5.7c-42.7,0-77.3,94.4-77.3,210.8C428.3,784.6,440.1,844.7,458.2,883.3z
		"/>
	<path class="st2" d="M594.1,435.7c0,90.5-11.1,509.5-11.1,509.5H481.6l11.9-17.5c-57-156-36.8-485.5-36.8-485.5L594.1,435.7z"/>
	<path class="st2" d="M483.9,157.9l53,13v72.3l-53-13v-42.8V157.9z"/>
	<circle cx="513.8" cy="200.7" r="1.4"/>
	<circle cx="492" cy="200.7" r="1.4"/>
	<path class="st0" d="M487.5,187.4h10.9v21.9"/>
	<path class="st0" d="M505.6,187.4h11"/>
	<path class="st3" d="M540.8,198.1c0,0.2,0,0.4,0,0.7v0c0,4.1-3.3,7.4-7.4,7.4v-7.6C533.4,193.9,540.4,193.4,540.8,198.1z"/>
	<g>
		<path class="st0" d="M540.8,198.7L540.8,198.7c0,4.1-3.3,7.4-7.4,7.4"/>
		<path class="st4" d="M510.7,207.1C510.7,207.1,510.7,207.1,510.7,207.1c0,4.2-3.4,7.5-7.5,7.5"/>
		<g>
			<path class="st0" d="M536.9,243.2l-13.3-3.3"/>
			<path class="st5" d="M503.2,210.4l-4.8-1.2"/>
			<path class="st0" d="M483.8,203.1c-4.2,21.8-2,40,25,39.3s22.5-36.3,22.5-36.3"/>
			<path class="st0" d="M525,207.1c2.3-5.9,1.7-16.6,1.7-16.6c-5.7-1.8-6.5-12.8-6.5-12.8s-39.8-0.8-41.5-12.3s42.5-21.5,56.7-9.8
				c14.2,11.7,4.2,40.2,4.2,40.2"/>
		</g>
	</g>
	<path class="st1" d="M592.4,319.9c0-5.7-0.7-11.5-2.1-17c-9.4-38.3-48.1-61.7-86.4-52.3c-44.4,10.9-75.6,50.8-75.6,96.5v129
		l164.1-40.3V319.9L592.4,319.9z"/>
	<path class="st6" d="M470,410.4l-41.7,5.6l-19.8-67l44.7-5.5l11.9,43.4"/>
	<g>
		<path class="st0" d="M493.5,927.8c-57-156-36.8-485.5-36.8-485.5"/>
		<path class="st0" d="M531.6,352.8l17.7,39.3l-70.8,8.1c0,0-4.5-5.3-10.5-12s-4,10.6-4,10.6s-31.3-20.7-27.3,11.6
			S616.7,512.1,634,435.7c17.3-76.4-65.3-169-65.3-169"/>
		<path class="st0" d="M428.3,439.4c-25.3,9.1-50.3-24.5-46.8-77.2s46.8-41.8,46.8-41.8c6.1,1.8,10.4,7.2,10.9,13.5
			c1,11.1-8.1,1-10.9,0c0,0-3.3,13.3-19.8,5.2"/>
		<path class="st0" d="M421.5,319.6c11.3-20.2,26.8-37.7,45.5-51.2"/>
	</g>
</g>
<g id="Calque_1">
	<path class="st6" d="M899.2,912c2-198-81.7-432.9-81.7-432.9L757.2,445l-14,224l74.3,283l106.7-30L899.2,912z"/>
	<path d="M825.9,717c0-68-31.4-126.5-76.2-151.7L743.2,669l43.9,167.2C811,806.1,825.9,763.8,825.9,717L825.9,717z"/>
	<path class="st6" d="M790.9,445.3c0,0,20.2,329.5-36.8,485.5l11.9,17.5H664.5c0,0-11.1-419.1-11.1-509.5L790.9,445.3z"/>
	<path class="st2" d="M757.2,190.4v42.8l-53,13V174l53-13V190.4z"/>
	<circle cx="727.2" cy="203.8" r="1.4"/>
	<circle cx="749" cy="203.8" r="1.4"/>
	<path class="st0" d="M742.6,212.2v-21.9h11"/>
	<path class="st0" d="M724.6,190.4h11"/>
	<path class="st2" d="M707.6,201.6v7.6c-4.1,0-7.4-3.3-7.4-7.4c0-0.2,0-0.4,0-0.7C700.7,196.5,707.6,196.9,707.6,201.6z"/>
	<g>
		<path class="st0" d="M707.6,209.2c-4.1,0-7.4-3.3-7.4-7.4"/>
		<path class="st4" d="M737.8,217.6c-4.1,0-7.5-3.4-7.5-7.5"/>
		<g>
			<path class="st0" d="M757.2,233.2l-53,13"/>
			<path class="st5" d="M742.6,212.2l-4.8,1.2"/>
		</g>
	</g>
	<path class="st2" d="M653.5,322.9v115.8l164.1,40.3v-129c0-45.7-31.2-85.6-75.6-96.5c-38.3-9.4-77,14-86.4,52.3
		C654.1,311.5,653.5,317.2,653.5,322.9L653.5,322.9z"/>
	<g>
		<path class="st0" d="M790.9,445.3c0,0,20.2,329.5-36.8,485.5"/>
		<path class="st0" d="M707.6,201.6c0,0,15.9-5.9,12.9-24.1h38"/>
		<path class="st0" d="M700.9,199.3c0,0-17-42.5,22.2-41c39.2,1.5,41.7,2.2,43,9s-8.9,14.3-8.9,14.3"/>
		<path class="st0" d="M700.2,255.9c0,0-103,35.1-119,133.1s108,175,108,175l34.7-49l-55.7-101l55.7-61"/>
		<path class="st0" d="M689.2,564l46.7-66"/>
		<path class="st0" d="M783.3,275c0,0,70.9,37,80.9,107l24-91c0,0-10-20,0-22c0,0-1-41.6,26-22.8s48,271.8-89,255.8"/>
	</g>
</g>
<g id="Calque_2">
	<g>
		<path class="st6" d="M280.9,443.5c0,0,98.4,279.8,104.4,459.8l21.6,14L326.1,953L225.3,723.8l-14.6-183l5-121.5"/>
		<path class="st6" d="M254.2,450c0,0,20.2,329.5-36.8,485.5l11.9,17.5H127.9c0,0-11.1-419.1-11.1-509.5L254.2,450z"/>
		<path class="st2" d="M225.3,195.1v42.8l-53,13v-72.3l53-13V195.1z"/>
	</g>
	<circle cx="195.4" cy="208.5" r="1.4"/>
	<circle cx="217.2" cy="208.5" r="1.4"/>
	<path class="st0" d="M210.8,216.9v-21.9h11"/>
	<path class="st0" d="M192.7,195.1h11"/>
	<path class="st2" d="M175.8,206.3v7.6c-4.1,0-7.4-3.3-7.4-7.4c0-0.2,0-0.4,0-0.7C168.8,201.2,175.8,201.7,175.8,206.3z"/>
	<g>
		<path class="st0" d="M175.8,213.9c-4.1,0-7.4-3.3-7.4-7.4"/>
		<path class="st4" d="M206,222.3c-4.1,0-7.5-3.4-7.5-7.5"/>
		<g>
			<path class="st0" d="M225.3,237.9l-53,13"/>
			<path class="st5" d="M210.8,217l-4.8,1.2"/>
		</g>
	</g>
	<path class="st2" d="M280.9,327.6v115.8l-164.1,40.3v-129c0-45.7,31.2-85.6,75.6-96.5c38.3-9.4,77,14,86.4,52.3
		C280.2,316.2,280.8,321.9,280.9,327.6L280.9,327.6z"/>
	<g>
		<path class="st0" d="M254.2,450c0,0,20.2,329.5-36.8,485.5"/>
		<path class="st0" d="M225.3,180.8l6.6-18.2c0,0-54.8-7.2-68.8,21.2l7.6,19"/>
		<path class="st0" d="M175.7,205.2c0,0,8.4-8,9.9-18.3l33-4"/>
		<path class="st0" d="M172.1,265.7c0,0-44.2,21.6-92,76.9c0,0-1.7-98-11.7-110s-12,0-12,0s-32.9-20.8-35.4-5.3s13.8,32.4,13.8,32.4
			S0.9,382.2,32,419.3s143.7-24.6,143.7-24.6"/>
		<path class="st0" d="M237.5,261.9c3.4,1.6,43.9,21.3,66.6,60"/>
		<path class="st0" d="M280.9,391.9c0,0,39.2,18.7,59.2,3.3s5.3-148,5.3-148s27.3-23.4,21.3-25.7s-34.7,0.8-34.7,0.8s-8-13.6-13.3,0
			s-29.3,72.3-27.7,81.3"/>
	</g>
	<path d="M157.7,403.7c0,0-2.3,37.8-40.6,73.5v-56.9C117.1,420.4,153.1,405.9,157.7,403.7z"/>
</g>
</svg>
