<?xml version="1.0" encoding="utf-8"?>
<!-- Generator: Adobe Illustrator 27.0.1, SVG Export Plug-In . SVG Version: 6.00 Build 0)  -->
<svg version="1.1" id="Calque_1" xmlns="http://www.w3.org/2000/svg" xmlns:xlink="http://www.w3.org/1999/xlink" x="0px" y="0px"
	 viewBox="0 0 1000 1000" style="enable-background:new 0 0 1000 1000;" xml:space="preserve">
<style type="text/css">
	.st0{fill:none;stroke:#000000;stroke-width:2;stroke-miterlimit:10;}
	.st1{fill:#48c1ee;}
	.st2{fill:#EDEEEF;}
	.st3{fill:none;}
	.st4{font-family:'Helvetica';}
	.st5{font-size:64px;}
	.st6{fill:#FFFFFF;}
</style>
<path class="st0" d="M122.8,892.3h754.5"/>
<path class="st0" d="M500,152.8v739.5"/>
<path class="st1" d="M724.2,213.9h-408v137.5h408l39.7-68.7L724.2,213.9z"/>
<path class="st1" d="M316.1,351.4h408l39.7-68.7"/>
<path d="M275.9,582.1h408V444.6h-408l-39.7,68.7L275.9,582.1z"/>
<path d="M683.8,444.6h-408l-39.7,68.7"/>
<ellipse transform="matrix(0.3827 -0.9239 0.9239 0.3827 188.3414 542.3329)" class="st2" cx="500" cy="130.2" rx="22.6" ry="22.6"/>
<ellipse transform="matrix(0.3827 -0.9239 0.9239 0.3827 188.3414 542.3329)" class="st0" cx="500" cy="130.2" rx="22.6" ry="22.6"/>
<rect x="342.6" y="262.2" class="st3" width="360" height="82.7"/>
<text transform="matrix(1 0 0 1 344.7362 308.3101)" class="st4 st5">ERROR 404</text>
<rect x="293.4" y="493.3" class="st3" width="360" height="82.7"/>
<text transform="matrix(1 0 0 1 338.3106 539.3969)" class="st6 st4 st5">RETOUR</text>
</svg>
