<?xml version="1.0" encoding="UTF-8"?><svg id="Calque_1" xmlns="http://www.w3.org/2000/svg" viewBox="0 0 798.9 302.48"><defs><style>.cls-1{fill:#faedd7;}.cls-2{fill:#0fd1ff;}.cls-3{fill:#48c1ee;}.cls-4{fill:none;stroke:#000;stroke-miterlimit:10;stroke-width:2px;}.cls-5{fill:#e8cc9b;}</style></defs><path class="cls-4" d="m22.22,301.48h754.46"/><path d="m684.25,281.98h-24.84L782.4,0l16.5,12.16-114.65,269.82Z"/><path class="cls-3" d="m659.31,281.98H210.83L333.83,0h448.47l-122.99,281.98Z"/><path class="cls-1" d="m636.59,266.98H250.71L356.54,24.35h385.88l-105.83,242.63Z"/><path class="cls-4" d="m250.71,266.98L356.54,24.35h385.88"/><path d="m676.48,301.48H0v-34.5h690.31l-13.83,34.5Z"/><path d="m676.48,301.48H0v-34.5h690.31l-13.83,34.5Z"/><g><path class="cls-5" d="m518.23,280.23h19.5c2.21,0,4,1.79,4,4h0c0,2.21-1.79,4-4,4h-19.5c-2.21,0-4-1.79-4-4h0c0-2.21,1.79-4,4-4Z"/><path class="cls-5" d="m568.23,280.23h19.5c2.21,0,4,1.79,4,4h0c0,2.21-1.79,4-4,4h-19.5c-2.21,0-4-1.79-4-4h0c0-2.21,1.79-4,4-4Z"/><path class="cls-5" d="m618.23,280.23h19.5c2.21,0,4,1.79,4,4h0c0,2.21-1.79,4-4,4h-19.5c-2.21,0-4-1.79-4-4h0c0-2.21,1.79-4,4-4Z"/></g><g id="layer1"><path id="path3183" class="cls-2" d="m522.66,89.06c-30.64-15.9-62.22-5.41-75.76,5.56,5.72,10.04,21.94,18.76,33.07,26.39-10.18,1.45-26.61,6.88-32.97,12.52,5.78,11.57,24.25,21.29,35.54,30.56-10.38.95-26.79,6.5-31.51,11.41,7.45,16.48,21.71,31.19,35.99,42.05,1.67,1.13,3.99-2.08,2.32-4.09-14.25-16.15-16.44-32.35,11.08-19.55,3.35,1.72,15.14-19.2,12.05-21.26-9.56-5.92-18.94-8.39-27.48-8.67-11.02-15.33-6.26-26.78,36.11-6.57,3.63,1.48,14.9-19.21,12.2-21.53-17.7-13.39-34.99-17.16-49.7-16.2-12.58-14.7-5.32-26.41,57.59,2.28,1.95.81,9.64-10.35,7.37-13-8.84-9.16-17.54-15.57-25.89-19.9h0Z"/></g></svg>