<?xml version="1.0" encoding="UTF-8"?><svg id="Calque_1" xmlns="http://www.w3.org/2000/svg" viewBox="0 0 600 600"><defs><style>.cls-1{stroke:#ec6597;}.cls-1,.cls-2,.cls-3{fill:none;stroke-miterlimit:10;}.cls-4{fill:#f5efb0;}.cls-2,.cls-3{stroke:#000;}.cls-3{stroke-linecap:round;}.cls-5{fill:#faf8da;}.cls-6{fill:#48c1ee;}</style></defs><path d="M192.26,194.44l-99.94,35.33,99.94,35.33,99.94-35.33-99.94-35.33Z"/><path class="cls-2" d="M92.32,229.77l99.94,35.33,99.94-35.33"/><path class="cls-5" d="M192.26,150.68l-99.94,35.33,99.94,35.33,99.94-35.33-99.94-35.33Z"/><path class="cls-2" d="M92.32,186l99.94,35.33,99.94-35.33"/><path class="cls-6" d="M192.26,106.91l-99.94,35.33,99.94,35.33,99.94-35.33-99.94-35.33Z"/><path class="cls-2" d="M92.32,142.24l99.94,35.33,99.94-35.33"/><path class="cls-2" d="M450.7,505.55H94.21"/><path class="cls-6" d="M357.47,260.97s-64.55,110.62-86.15,220.05l-7.93,4.68,38.06,12.6s84.33-127.2,89.4-143.33c5.07-16.13-3.6-94.01-3.6-94.01"/><path d="M374.19,311.02s-10.36,53.1-7.52,86.26c10.87-17.48,19.69-32.32,22.98-39.45l-15.46-46.81Z"/><path class="cls-5" d="M376.15,141.75v20.56l25.46,6.26v-34.69l-25.46-6.26v14.13Z"/><path d="M390.53,148.86c.37,0,.68-.3,.68-.68s-.3-.68-.68-.68-.68,.3-.68,.68,.3,.68,.68,.68Z"/><path d="M380.08,148.86c.37,0,.68-.3,.68-.68s-.3-.68-.68-.68-.68,.3-.68,.68,.3,.68,.68,.68Z"/><path class="cls-2" d="M383.14,152.24v-10.49h-5.26"/><path class="cls-2" d="M391.81,141.75h-5.26"/><path class="cls-5" d="M399.93,147.12v3.64c.47,0,.93-.09,1.36-.27,.43-.18,.83-.44,1.16-.77,.33-.33,.59-.72,.77-1.15,.18-.43,.27-.9,.27-1.36,0-.11,0-.22,0-.32-.21-2.21-3.56-1.98-3.56,.24Z"/><path class="cls-2" d="M399.93,150.77c.47,0,.93-.09,1.36-.27,.43-.18,.82-.44,1.16-.77,.33-.33,.59-.72,.77-1.15,.18-.43,.27-.9,.27-1.36"/><path class="cls-2" d="M396.85,167.39l4.76,1.17"/><path class="cls-3" d="M383.14,152.25l2.3,.56"/><path class="cls-2" d="M376.15,147.5s-5.11,15,1.74,19.9c6.85,4.9,27.22,2.03,21.71-18.07"/><path class="cls-2" d="M379.2,152.52c-.09,.15-.15,.32-.15,.5,0,.18,.03,.35,.11,.51,.08,.16,.2,.29,.35,.39,.15,.1,.32,.16,.5,.17,1.47,.32,3.7-2.57,5.62-1,0,0,.43-2.23,5.23-.89,4.8,1.33,3.14-1.84,3.14-1.84"/><path class="cls-1" d="M385.03,155.1c.43,.2,.9,.32,1.37,.34,.47,.02,.95-.05,1.4-.22,.45-.16,.85-.42,1.2-.74,.35-.32,.63-.71,.83-1.15"/><path class="cls-2" d="M374.32,134.51s1.72,7.43,17.5,3c0,0,.95,4.04,3.67,4.2,2.71,.16,2.6,2.9,2.6,2.9"/><path class="cls-2" d="M376.15,141.75s-16.46-14.2,2.87-14.93c19.34-.73,29.81,5.28,22.69,18.52"/><path class="cls-4" d="M357.47,205.37v55.6l78.76,19.36v-61.92c0-10.67-3.58-21.03-10.16-29.43-6.58-8.4-15.79-14.34-26.15-16.89-5.05-1.24-10.31-1.32-15.39-.22-5.08,1.09-9.85,3.33-13.94,6.53-4.09,3.21-7.4,7.3-9.67,11.97-2.27,4.67-3.46,9.8-3.46,15h0Z"/><path class="cls-6" d="M436.24,280.32l-61.92-15.22s-4.2,150.53,20.28,232.28l-4.07,8.16h40.59s8.08-192.29,5.12-225.22h0Z"/><path class="cls-2" d="M374.32,265.11s-4.2,150.53,20.28,232.28"/><path class="cls-2" d="M411.54,176.62s47.4,27.97,45.94,74.53c-1.46,46.56-35.04,65.27-35.04,65.27"/><path class="cls-2" d="M409.96,290.75s6.96,25.44,18.72,30.72"/><path class="cls-2" d="M403.49,223.63l25.19,30.72-18.09,38.5"/><path d="M412.2,289.46l16.49-35.11-19.31-23.56s11.75,35.23,2.82,58.67h0Z"/><path class="cls-2" d="M366.17,182.54l-33.77,26.73s-38.9-49.57-47.5-52.2-19.06,2.88-19.06,2.88v3.26l9.95,1.8s-1.45,11.61,4.88,17.01c0,0,19.64,71.78,49.12,72,20.16,.16,27.68-5.44,27.68-5.44"/><path class="cls-2" d="M301.68,505.55h212.14"/><path d="M488.73,503.88s3.65-6.47-5.63-7.87c-5.51-.85-11.15-.17-16.3,1.97,0,0,6.47-7.87-3.65-11.25-10.12-3.38-20.53,4.5-20.53,4.5,0,0,10.12-18.84,2.25-20.24-7.87-1.4-12.09,6.75-12.09,6.75,0,0,.84-23.34-15.47-23.9-16.31-.56-14.62,29.81-14.62,29.81,0,0-7.03-13.5-18.84-14.06-11.81-.56-5.9,22.61-5.9,22.61,0,0-2.25-5.46-10.12-6-7.87-.54-7.32,6.04-7.32,6.04,0,0-10.11-14.21-21.37-13.37-11.26,.85-6.47,14.9-6.47,14.9-11.53-.85-14.08,11.79-14.08,11.79h178.28l-8.15-1.67Z"/></svg>