<?xml version="1.0" encoding="UTF-8"?><svg id="Calque_1" xmlns="http://www.w3.org/2000/svg" viewBox="0 0 600 600"><defs><style>.cls-1{stroke:#ec6597;}.cls-1,.cls-2,.cls-3{fill:none;stroke-miterlimit:10;}.cls-4{fill:#E8CC9B;}.cls-2,.cls-3{stroke:#000;}.cls-3{stroke-linecap:round;}.cls-5{fill:#faf8da;}.cls-6{fill:#48c1ee;}</style></defs><path class="cls-2" d="M101.97,505.67H430.32"/><path class="cls-5" d="M388.82,278.97s-70.52,98.04-2.19,204.6l1.63,21.16,41.3-21.98-23.04-86.4,32.16-56.04-23.18-74.89"/><path class="cls-5" d="M398.36,258.97l67.03,1.18-.61,66.98v177.6h-52.2l5.52-9.89-19.74-235.87Z"/><path class="cls-5" d="M438.74,140.93v20.56l-25.46,6.26v-34.69l25.46-6.26v14.13Z"/><path d="M424.36,148.04c.37,0,.68-.3,.68-.68s-.3-.68-.68-.68-.68,.3-.68,.68,.3,.68,.68,.68Z"/><path d="M434.82,148.04c.37,0,.68-.3,.68-.68s-.3-.68-.68-.68-.68,.3-.68,.68,.3,.68,.68,.68Z"/><path class="cls-2" d="M431.75,151.42v-10.49h5.26"/><path class="cls-2" d="M423.07,140.93h5.26"/><path class="cls-5" d="M414.96,146.31v3.65c-.94,0-1.85-.38-2.52-1.05-.67-.67-1.04-1.57-1.04-2.52,0-.11,0-.22,0-.32,.22-2.21,3.56-1.97,3.56,.24h0Z"/><path class="cls-2" d="M414.96,149.95c-.94,0-1.85-.38-2.52-1.05-.67-.67-1.04-1.57-1.04-2.52"/><path class="cls-1" d="M429.45,154.01c-.96,0-1.87-.38-2.55-1.05s-1.05-1.59-1.05-2.55"/><path class="cls-2" d="M438.74,161.49l-25.46,6.26"/><path class="cls-3" d="M431.75,151.43l-2.3,.57"/><path class="cls-2" d="M415.32,145.45s4.96-4.64,5.04-9.12c0,0,18.72,2.8,21.52,2l-2-3.84c2.25-.88,4.42-1.95,6.48-3.2,0,0-24.08-16.8-35.04,.88,0,0-7.33,3.52,.25,13.28"/><path class="cls-6" d="M465.39,204.55v55.6l-78.76,19.36v-61.92c0-10.67,3.58-21.03,10.16-29.43,6.58-8.4,15.79-14.34,26.15-16.89,5.05-1.24,10.31-1.31,15.39-.22,5.08,1.09,9.84,3.33,13.93,6.53,4.09,3.21,7.4,7.3,9.67,11.97,2.27,4.67,3.46,9.8,3.46,15h0Z"/><path d="M452.84,241.54c-10.86,12.49-34.44,11.12-57.39,4.06,4.44,8.75,16.45,15,30.56,15,17.89,0,32.4-10.07,32.4-22.5,0-1.16-.13-2.32-.38-3.46-1.56,2.42-3.3,4.73-5.19,6.9h0Z"/><path class="cls-2" d="M418.1,494.84l-19.74-235.87"/><path class="cls-2" d="M460.48,186.84s16.37,27.11-7.64,54.71-110.16-12.48-114.24-32.16c-4.08-19.68-.96-18,3.6-13.92s6.96,3.12,6.96,3.12c0,0,.72-7.68,3.12-5.52,2.4,2.16,3.12,6.24,3.12,6.24l57.88,15.36,14.36-23.76"/><path class="cls-2" d="M409.92,176.61s-21.37,13.3-30.14,29.15"/><path class="cls-2" d="M352.36,224.88s-30.64,2.81-46,5.37c-15.36,2.56,1.92,5.76,1.92,5.76,0,0,7.97,11.53,21.77,7.04,0,0,28.05,13.44,56.59,6.08"/><path class="cls-4" d="M111.81,288.18h188.2v136.46H111.81v-136.46Z"/><path class="cls-2" d="M300,288.18v136.46"/><path class="cls-5" d="M142.36,334.94l-1.67-5.62c-1.29-4.33-3.94-8.13-7.56-10.83s-8.02-4.16-12.54-4.17h-41.6l32.82,110.31h188.2l-26.69-89.69H142.36Z"/><path class="cls-2" d="M111.81,424.63h188.2"/><path class="cls-2" d="M300,424.63l-26.69-89.69H142.36"/><path class="cls-4" d="M180.43,132.94v130.16h99.95v-94.31l-35.86-35.85h-64.1Z"/><path class="cls-2" d="M180.43,263.1h99.95v-94.31"/><path class="cls-2" d="M198.22,188.29h41.74"/><path class="cls-2" d="M198.22,197.08h41.74"/><path class="cls-2" d="M198.22,205.87h41.74"/><path class="cls-2" d="M198.22,214.66h20.87"/><path class="cls-5" d="M144.96,108.78V238.95h99.95v-94.31l-35.85-35.86h-64.1Z"/><path class="cls-2" d="M144.96,238.95h99.95v-94.31"/><path class="cls-6" d="M244.91,144.64l-35.85-35.86v35.86h35.85Z"/><path class="cls-2" d="M174.06,164.14h41.74"/><path class="cls-2" d="M174.06,172.93h41.74"/><path class="cls-2" d="M174.06,181.72h41.74"/><path class="cls-2" d="M174.06,190.51h20.87"/></svg>