<?xml version="1.0" encoding="UTF-8"?><svg xmlns="http://www.w3.org/2000/svg" xmlns:xlink="http://www.w3.org/1999/xlink" id="Calque_1" viewBox="0 0 600 600"><defs><style>.cls-1{stroke:#ec6597;}.cls-1,.cls-2,.cls-3{stroke-miterlimit:10;}.cls-1,.cls-2,.cls-3,.cls-4{fill:none;}.cls-5{fill:#E8CC9B;}.cls-2,.cls-3{stroke:#000;}.cls-3{stroke-linecap:round;}.cls-6{fill:#faf8da;}.cls-7{fill:#48c1ee;}.cls-8{clip-path:url(#clippath);}</style><clipPath id="clippath"><rect class="cls-4" width="600" height="600"/></clipPath></defs><g class="cls-8"><g><path class="cls-2" d="M185.28,505.8h327.44"/><path class="cls-6" d="M296.11,130.63c-11.44-.02-22.41,4.4-30.51,12.27-8.1,7.88-12.66,18.57-12.68,29.73l86.24,.15c.01-5.53-1.09-11-3.25-16.11-2.16-5.11-5.33-9.75-9.32-13.67-4-3.92-8.75-7.02-13.97-9.15-5.23-2.12-10.83-3.22-16.5-3.23h0Z"/><path class="cls-6" d="M385.94,148.88c-3.24,0-6.44,.61-9.42,1.81-2.98,1.2-5.7,2.97-7.98,5.19-2.3,2.23-4.1,4.87-5.34,7.78s-1.88,6.03-1.9,9.18l49.18,.08c0-3.15-.62-6.27-1.86-9.19-1.22-2.92-3.02-5.57-5.3-7.8-2.28-2.23-5-4.01-7.98-5.22-2.98-1.21-6.18-1.84-9.4-1.84h0Z"/><path class="cls-6" d="M339.23,128.79c-11.96-.02-23.44,4.6-31.91,12.83-8.47,8.24-13.24,19.42-13.26,31.09l90.18,.16c.02-5.78-1.14-11.5-3.4-16.85-2.26-5.34-5.56-10.2-9.74-14.29-4.18-4.09-9.16-7.34-14.62-9.56-5.47-2.22-11.33-3.37-17.25-3.38h0Z"/><path class="cls-2" d="M244.99,172.63l177.25,.31"/><path class="cls-2" d="M344,269.22h140"/><path d="M326.94,153.33h175.04v98.87h-175.04v-98.87Z"/><path class="cls-5" d="M400.72,252.2v9.96c0,1.87-.76,3.67-2.12,4.99s-3.2,2.07-5.12,2.07h24.1c1.92,0,3.76-.74,5.12-2.07,1.36-1.32,2.12-3.12,2.12-4.99v-9.96h-24.1Z"/><path class="cls-2" d="M417.58,269.22c1.92,0,3.76-.74,5.12-2.07,1.36-1.32,2.12-3.12,2.12-4.99v-9.96"/><path d="M397.24,252.2v9.96c0,1.87-.78,3.67-2.12,4.99-1.36,1.32-3.2,2.07-5.12,2.07h24.1c1.92,0,3.76-.74,5.12-2.07,1.34-1.32,2.12-3.12,2.12-4.99v-9.96h-24.1Z"/><path class="cls-7" d="M320.92,153.33h175.02v98.87h-175.02v-98.87Z"/><path class="cls-2" d="M495.96,153.33v98.87h-175.04"/><path class="cls-5" d="M328.58,160.3h159.7v84.92h-159.7v-84.92Z"/><path class="cls-2" d="M328.58,245.23v-84.93h159.7"/><path class="cls-6" d="M257.09,284.8l-50.9-18.96-16.92,128.67-63.6,57.66,31.64,53.15,8.78-20.25c132.54-33.84,91.01-200.28,91.01-200.28h0Z"/><path d="M254.38,403.11c-6.46-31.76-23.75-54.49-44.13-54.49-5.46,0-10.69,1.64-15.56,4.64l-5.42,41.26-25.24,22.88c-.4,4.31-.61,8.73-.61,13.23,0,19.82,4.01,37.99,10.69,52.17,46.12-14.43,69.31-45.95,80.27-79.69h0Z"/><path class="cls-6" d="M244.55,268.92s9.49,154.86-17.31,228.18l5.6,8.23h-47.66s-5.21-196.97-5.21-239.48l64.58,3.07Z"/><path class="cls-6" d="M228.72,149.11v20.13l-24.93,6.12v-33.96l24.93-6.12v13.84Z"/><path d="M214.64,156.07c.37,0,.67-.3,.67-.67s-.3-.67-.67-.67-.67,.3-.67,.67,.3,.67,.67,.67Z"/><path d="M224.88,156.07c.37,0,.67-.3,.67-.67s-.3-.67-.67-.67-.67,.3-.67,.67,.3,.67,.67,.67Z"/><path class="cls-2" d="M221.87,159.38v-10.27h5.15"/><path class="cls-2" d="M213.39,149.11h5.15"/><path class="cls-6" d="M205.43,154.38v3.57c-.92,0-1.81-.37-2.46-1.02-.65-.65-1.02-1.54-1.02-2.46v-.32c.21-2.17,3.48-1.94,3.48,.24h0Z"/><path class="cls-2" d="M205.43,157.94c-.92,0-1.81-.37-2.46-1.02-.65-.65-1.02-1.54-1.02-2.46"/><path class="cls-1" d="M219.62,161.92c-.93,0-1.83-.37-2.49-1.03-.66-.66-1.03-1.56-1.03-2.49"/><path class="cls-2" d="M228.72,169.24l-24.93,6.12"/><path class="cls-3" d="M221.87,159.39l-2.25,.55"/><path class="cls-7" d="M179.97,211.4v54.44l77.12,18.96v-60.63c0-10.45-3.5-20.59-9.95-28.82-6.45-8.22-15.46-14.05-25.61-16.54-4.94-1.21-10.09-1.29-15.07-.22-4.97,1.07-9.64,3.26-13.64,6.4-4.01,3.14-7.24,7.15-9.47,11.72-2.23,4.57-3.38,9.6-3.39,14.68h0Z"/><path class="cls-2" d="M244.55,268.92s9.49,154.86-17.31,228.18"/><path class="cls-2" d="M206.19,152.63s3.13-1.57,3.76-9.71c0,0,17.39,8.15,19.89-1.72"/><path class="cls-2" d="M203.02,152.63l-2.35-15.75s24.32-8.34,31.61,0c0,0,1.59,5.7-3.55,10.55"/><path class="cls-2" d="M197.1,182.14s-46.37,20.62-49.19,69.5c-2.82,48.88,97.62,33.53,103.4,4.7,0,0,9.69-5.32,5.78-5.95-3.9-.63-77.12-.31-77.12-.31l20.68-22.88"/><path class="cls-2" d="M241.02,188.91s22.82,18.87,28.46,52.39c0,0,20.68-38.54,26.01-38.54s17.86-1.25,14.72,1.88c-3.13,3.14-9.71,4.08-9.71,4.08,0,0,6.58,6.89-3.13,9.71,0,0,2.17,68.51-40.28,66.37"/></g></g></svg>
