<?xml version="1.0" encoding="utf-8"?>
<!-- Generator: Adobe Illustrator 27.1.0, SVG Export Plug-In . SVG Version: 6.00 Build 0)  -->
<svg version="1.1" xmlns="http://www.w3.org/2000/svg" xmlns:xlink="http://www.w3.org/1999/xlink" x="0px" y="0px"
	 viewBox="0 0 600 600" style="enable-background:new 0 0 600 600;" xml:space="preserve">
<style type="text/css">
	.st0{fill:#FAF8DA;}
	.st1{fill:none;stroke:#000000;stroke-miterlimit:10;}
	.st2{fill:#48C1EE;}
	.st3{fill:#EDEEEF;}
	.st4{fill:none;stroke:#FF6498;stroke-miterlimit:10;}
	.st5{fill:none;stroke:#000000;stroke-linecap:round;stroke-miterlimit:10;}
	.st6{fill:#E8CC9B;}
</style>
<g id="Calque_1">
</g>
<g id="Calque_2">
	<path class="st0" d="M413.8,443.3c-16.9-108.9-115.6-156.1-115.6-156.1l-41.1,21.2c-1.4,0,7.7,39,7.7,39l60.9,27l56.4,87.2
		l42.9-14.8L413.8,443.3z"/>
	<path d="M329.1,307c-23.3-11.3-51.1-8.2-71.4,8c2,11.1,7,32.5,7,32.5l60.9,27l24.4,37.7c20.1-22.7,22.6-56,6-81.4
		C347.7,322.2,338.7,314.2,329.1,307L329.1,307z"/>
	<path class="st0" d="M360.7,350.7c-2-55.7-68.4-64.6-68.4-64.6l-76.8-18.9c0,0-12.7,83.9,84.3,85.3l-45.8,90.8l42.1,18.3l-3.7-12.7
		C292.3,448.9,361.9,383.9,360.7,350.7z"/>
	<path class="st1" d="M215.5,267.2c0,0-12.7,83.9,84.3,85.3l-45.8,90.8"/>
	<path class="st2" d="M215.5,213v54.2l76.8,18.9v-60.4c0-21.4-14.6-40.1-35.4-45.2c-17.9-4.4-36,6.6-40.4,24.5
		C215.8,207.6,215.5,210.3,215.5,213L215.5,213z"/>
	<path class="st0" d="M238.1,150.9v8.7c0,6.7,4.6,12.5,11.1,14.1L263,177v-33.8l-11.5-2.8c-5.8-1.4-11.7,2.1-13.1,7.9
		C238.2,149.2,238.1,150,238.1,150.9L238.1,150.9z"/>
	<path class="st1" d="M238.1,159.5c0,6.7,4.6,12.5,11.1,14.1L263,177"/>
	<circle cx="252.2" cy="157.2" r="0.7"/>
	<circle cx="242" cy="157.2" r="0.7"/>
	<path class="st1" d="M245,161.1v-10.2h-5.1"/>
	<path class="st1" d="M253.4,150.9h-5.1"/>
	<path class="st3" d="M261.3,156.1v3.6c1.9,0,3.5-1.6,3.5-3.5l0,0c0-0.1,0-0.2,0-0.3C264.6,153.7,261.3,154,261.3,156.1z"/>
	<g>
		<path class="st1" d="M261.3,159.7c1.9,0,3.5-1.6,3.5-3.5v0"/>
		<path class="st4" d="M247.8,162.3c0.9,0.9,2.4,0.9,3.2,0"/>
		<g>
			<path class="st5" d="M245,161.1l2.2,0.6"/>
			<path class="st1" d="M237.6,154.8c0,0,6.2-3.2,7.2-8.7c0-0.1,0.1-0.2,0.2-0.2c0.1,0,0.1,0.1,0.2,0.1c0.8,2.3,3.9,8.6,16.2,10"/>
			<path class="st1" d="M238.1,158c0,0-6.1-2.7-5.1-9.9c1.1-7.2,22.2-26.7,36.4-8c14.2,18.8,37.7,54.2,37.7,54.2l-15.5,2.4
				c-13.6,2.1-26.3-7.2-28.4-20.8c-0.2-1.2-0.3-2.5-0.3-3.8v-9.7"/>
		</g>
	</g>
	<path class="st6" d="M439,254.2H316.8l8.4-73.4h122.3L439,254.2z"/>
	<path class="st1" d="M434.2,247.9H311.9l8.4-73.4h122.3L434.2,247.9z"/>
	<path d="M381.4,275.7l3.2-27.8H365l-3.2,27.8H381.4z"/>
	<g>
		<path class="st1" d="M277,275.7h167.3"/>
		<path class="st1" d="M225.8,188.6c0,0-31.7,26-39.6,68.1s55.2,31.9,85.2,19.6"/>
		<path class="st1" d="M219.7,257.4c0,0,64.3-11.4,68.8,16.8"/>
		<path class="st1" d="M212.6,202.3c0,0-10.2-21.1-18.6-2.9s-45.3,138.6-6.4,158.7c38.9,20.1,95.7,9.1,95.7,9.1"/>
		<path class="st1" d="M240.4,370.3v135.5H194"/>
	</g>
	<path class="st1" d="M272.8,187.4c0,0,21,17.4,26.2,48.2c0,0,19-35.5,23.9-35.5s16.4-1.2,13.5,1.7c-2.9,2.9-8.9,3.8-8.9,3.8
		s6.1,6.3-2.9,8.9c0,0,2,63.1-37.1,61.1"/>
</g>
</svg>
