<?xml version="1.0" encoding="utf-8"?>
<!-- Generator: Adobe Illustrator 27.1.0, SVG Export Plug-In . SVG Version: 6.00 Build 0)  -->
<svg version="1.1" id="Calque_1" xmlns="http://www.w3.org/2000/svg" xmlns:xlink="http://www.w3.org/1999/xlink" x="0px" y="0px"
	 viewBox="0 0 600 600" style="enable-background:new 0 0 600 600;" xml:space="preserve">
<style type="text/css">
	.st0{fill:none;stroke:#000000;stroke-miterlimit:10;}
	.st1{fill:#FAF8DA;}
	.st2{fill:#48C1EE;}
	.st3{fill:#EDEEEF;}
	.st4{fill:none;stroke:#FF6498;stroke-miterlimit:10;}
	.st5{fill:none;stroke:#000000;stroke-linecap:round;stroke-miterlimit:10;}
</style>
<path d="M192.3,194.4l-99.9,35.3l99.9,35.3l99.9-35.3L192.3,194.4L192.3,194.4z"/>
<path class="st0" d="M92.3,229.8l99.9,35.3l99.9-35.3"/>
<path class="st1" d="M192.3,150.7L92.3,186l99.9,35.3l99.9-35.3L192.3,150.7L192.3,150.7z"/>
<path class="st0" d="M92.3,186l99.9,35.3l99.9-35.3"/>
<path class="st2" d="M192.3,106.9l-99.9,35.3l99.9,35.3l99.9-35.3L192.3,106.9L192.3,106.9z"/>
<path class="st0" d="M92.3,142.2l99.9,35.3l99.9-35.3"/>
<path class="st0" d="M450.7,505.5H94.2"/>
<path class="st0" d="M366.2,182.5l-33.8,26.7c0,0-38.9-49.6-47.5-52.2s-19.1,2.9-19.1,2.9v3.3l10,1.8c0,0-1.5,11.6,4.9,17
	c0,0,19.6,71.8,49.1,72c20.2,0.2,27.7-5.4,27.7-5.4"/>
<path class="st0" d="M301.7,505.5h212.1"/>
<path d="M488.7,503.9c0,0,3.6-6.5-5.6-7.9c-5.5-0.9-11.1-0.2-16.3,2c0,0,6.5-7.9-3.6-11.2s-20.5,4.5-20.5,4.5s10.1-18.8,2.2-20.2
	s-12.1,6.8-12.1,6.8s0.8-23.3-15.5-23.9s-14.6,29.8-14.6,29.8s-7-13.5-18.8-14.1s-5.9,22.6-5.9,22.6s-2.2-5.5-10.1-6s-7.3,6-7.3,6
	s-10.1-14.2-21.4-13.4c-11.3,0.9-6.5,14.9-6.5,14.9c-11.5-0.9-14.1,11.8-14.1,11.8h178.3L488.7,503.9L488.7,503.9z"/>
<path class="st2" d="M416.5,504.7L402.5,249h-41.1c0,0-6,180.1,6.8,244l-8.2,11.6H416.5z"/>
<path class="st2" d="M373.9,247.8l58.8-4l10.7,4.4l5,256.6h-54.6l5.8-10.3L373.9,247.8z"/>
<path class="st0" d="M393.8,504.7l5.8-10.3l-25.7-246.6"/>
<path class="st1" d="M373.2,124.4v9.3c0,7.2,4.9,13.4,11.9,15.1l14.8,3.6v-36.3l-12.3-3c-6.2-1.5-12.5,2.3-14,8.5
	C373.3,122.5,373.2,123.5,373.2,124.4L373.2,124.4z"/>
<path class="st0" d="M373.2,133.7c0,7.2,4.9,13.4,11.9,15.1l14.8,3.6"/>
<circle cx="388.2" cy="131.1" r="0.7"/>
<circle cx="377.3" cy="131.1" r="0.7"/>
<path class="st0" d="M380.5,135.3v-11H375"/>
<path class="st0" d="M389.5,124.4H384"/>
<path class="st3" d="M398,130v3.8c2.1,0,3.7-1.7,3.7-3.7c0-0.1,0-0.2,0-0.3C401.5,127.4,398,127.7,398,130z"/>
<g>
	<path class="st0" d="M398,133.8c2.1,0,3.7-1.7,3.7-3.7"/>
	<path class="st4" d="M383.5,136.6c1,1,2.5,1,3.5,0"/>
	<path class="st5" d="M380.5,135.4l2.4,0.6"/>
</g>
<path class="st1" d="M361.3,190.9V249l82.3,20.2v-64.7c0-23-15.7-42.9-38-48.4c-19.2-4.7-38.6,7-43.3,26.3
	C361.7,185.1,361.3,188,361.3,190.9L361.3,190.9z"/>
<g>
	<path class="st0" d="M372.6,119.5h10.3l1.2-2.7l1.2,2.7h8c0,0,1.8,8.1,5.2,9.3"/>
	<path class="st0" d="M373.2,128.9c0,0-11.7-16.4,6.5-20.7c18.2-4.4,27.8,3.2,31.3,17.4s-11.1,20.6-11.1,20.6"/>
	<path class="st0" d="M373.6,137.4c0,0-14,6.1-13,21.6c0.2,3.3-0.1,6.7-1.1,9.9c-1.3,4.1-2.2,10,1,14c5.4,6.9,16.3-26,26.9-33.5"/>
</g>
<path d="M383.1,172.4l-11.8,61.5l4.4,11.4l10.9-9.4l-0.7-63.1l3.8-5.5h-9.2L383.1,172.4z"/>
<g>
	<path class="st0" d="M423.6,164.5c0,0,50.6,42.3,49.6,90.5c-1,48.2-49.6,54.2-49.6,54.2l-9.6-14.3l24.9-42.3l-22.5-28.2"/>
	<path class="st0" d="M423.6,309.2l-16.5-24.7"/>
</g>
</svg>
