<?xml version="1.0" encoding="utf-8"?>
<!-- Generator: Adobe Illustrator 27.1.0, SVG Export Plug-In . SVG Version: 6.00 Build 0)  -->
<svg version="1.1" xmlns="http://www.w3.org/2000/svg" xmlns:xlink="http://www.w3.org/1999/xlink" x="0px" y="0px"
	 viewBox="0 0 2242.7 803.6" style="enable-background:new 0 0 2242.7 803.6;" xml:space="preserve">
<style type="text/css">
	.st0{display:none;fill:none;stroke:#000000;stroke-width:2;stroke-miterlimit:10;}
	.st1{fill:#48C1EE;}
	.st2{fill:none;stroke:#000000;stroke-width:2;stroke-miterlimit:10;}
	.st3{fill:#D6D6D6;}
	.st4{fill:#0A3240;}
	.st5{fill:#E8CC9B;}
	.st6{fill:#FAEDD7;}
	.st7{fill:none;}
	.st8{fill:#EDEEEF;}
	.st9{fill:none;stroke:#FF6498;stroke-width:2;stroke-miterlimit:10;}
	.st10{fill:none;stroke:#000000;stroke-width:2;stroke-linecap:round;stroke-miterlimit:10;}
	.st11{fill:none;stroke:#48C1EE;stroke-width:2;stroke-miterlimit:10;}
</style>
<g id="Calque_1">
	<g id="Calque_3">
		<path class="st0" d="M214.5,792.7h550"/>
		<path class="st1" d="M77.1,430h682.8v37.6H77.1V430L77.1,430z"/>
		<g>
			<path class="st2" d="M759.8,430v37.6H77.1"/>
			<path class="st2" d="M418.5,467.6v324.5"/>
		</g>
		<path class="st2" d="M225.8,428.6h87.3"/>
		<path d="M386.4,403.1H131V255.3h255.3v147.8H386.4z"/>
		<path class="st3" d="M243.6,403.1V418l0,0c0,5.8,4.7,10.6,10.6,10.6h35.2l0,0c-5.8,0-10.6-4.7-10.6-10.6v-14.9H243.6z"/>
		<path class="st2" d="M243.6,403.1V418l0,0c0,5.8,4.7,10.6,10.6,10.6"/>
		<path d="M248.7,403.1V418c0,5.8,4.7,10.6,10.6,10.6h35.2l0,0c-5.8,0-10.6-4.7-10.6-10.6v-14.9H248.7z"/>
		<path class="st4" d="M395.1,403.1H139.8V255.3h255.3V403.1z"/>
		<path class="st2" d="M395.1,403.1H139.8V255.3"/>
		<path class="st5" d="M384,392.7H151V265.8h233V392.7z"/>
		<path class="st2" d="M151,265.8h233v126.9"/>
	</g>
	<g id="Calque_2_00000045611789622488029030000007565638290502179735_">
		<path class="st5" d="M1821.9,41.2h210v379.1h-210V41.2z"/>
		<polygon class="st6" points="1821.9,398.3 2031.9,139.8 2031.9,81.5 1821.9,343.4 		"/>
		<polygon class="st6" points="1821.9,316.8 2031.8,61.8 2031.7,50.5 1821.9,303.8 		"/>
		<g>
			<path class="st2" d="M1926.9,38.8v384"/>
			<path class="st2" d="M1821.9,420.4V41.2h210"/>
			<path class="st2" d="M2052.1,166.7h-250.5"/>
			<path class="st2" d="M2052.1,294.9h-250.5"/>
		</g>
	</g>
	<g id="Calque_2_00000078747880673499987950000000859572705724427163_">
		<path d="M363.4,191.1h293.2v10.4H363.4V191.1z"/>
		<path class="st2" d="M656.7,191.1v10.4H363.4"/>
		<path d="M424.4,201.4l14,7.1v-7.1H424.4z"/>
		<path d="M581.7,201.4l14,7.1v-7.1H581.7z"/>
		<path class="st5" d="M391.3,76.6h16.9v114.5h-16.9V76.6z"/>
		<g>
			<path class="st2" d="M408.2,191.1h-16.9V76.6"/>
			<path class="st2" d="M395.8,98h12.5"/>
			<path class="st2" d="M395.8,102.6h12.5"/>
			<path class="st2" d="M395.8,107.2h12.5"/>
		</g>
		<path class="st7" d="M412.1,76.6H429v114.5h-16.9V76.6z"/>
		<g>
			<path class="st2" d="M429,191.1h-16.9V76.6"/>
			<path class="st2" d="M416.5,98H429"/>
			<path class="st2" d="M416.5,102.6H429"/>
			<path class="st2" d="M416.5,107.2H429"/>
		</g>
		<path class="st1" d="M432.9,76.6h16.9v114.5h-16.9V76.6z"/>
		<g>
			<path class="st2" d="M449.7,191.1h-16.9V76.6"/>
			<path class="st2" d="M437.3,98h12.4"/>
			<path class="st2" d="M437.3,102.6h12.4"/>
			<path class="st2" d="M437.3,107.2h12.4"/>
		</g>
		<path class="st7" d="M453.6,76.6h16.9v114.5h-16.9V76.6z"/>
		<g>
			<path class="st2" d="M470.5,191.1h-16.9V76.6"/>
			<path class="st2" d="M458,98h12.4"/>
			<path class="st2" d="M458,102.6h12.4"/>
			<path class="st2" d="M458,107.2h12.4"/>
		</g>
		<path class="st5" d="M474.4,76.6h16.9v114.5h-16.9V76.6z"/>
		<g>
			<path class="st2" d="M491.2,191.1h-16.9V76.6"/>
			<path class="st2" d="M478.8,98h12.4"/>
			<path class="st2" d="M478.8,102.6h12.4"/>
			<path class="st2" d="M478.8,107.2h12.4"/>
		</g>
		<path class="st7" d="M495.1,76.6H512v114.5h-16.9V76.6z"/>
		<g>
			<path class="st2" d="M512,191.1h-16.9V76.6"/>
			<path class="st2" d="M499.6,98H512"/>
			<path class="st2" d="M499.6,102.6H512"/>
			<path class="st2" d="M499.6,107.2H512"/>
		</g>
		<path class="st5" d="M515.9,76.6h16.9v114.5h-16.9V76.6z"/>
		<g>
			<path class="st2" d="M532.8,191.1h-16.9V76.6"/>
			<path class="st2" d="M520.3,98h12.4"/>
			<path class="st2" d="M520.3,102.6h12.4"/>
			<path class="st2" d="M520.3,107.2h12.4"/>
		</g>
		<path class="st7" d="M536.6,76.6h16.9v114.5h-16.9V76.6z"/>
		<g>
			<path class="st2" d="M553.5,191.1h-16.9V76.6"/>
			<path class="st2" d="M541.1,98h12.5"/>
			<path class="st2" d="M541.1,102.6h12.5"/>
			<path class="st2" d="M541.1,107.2h12.5"/>
		</g>
		<path class="st5" d="M555.7,81.2l16.2-4.7l31.8,109.9l-16.2,4.7L555.7,81.2L555.7,81.2z"/>
		<g>
			<path class="st2" d="M603.7,186.4l-16.2,4.7L555.7,81.2"/>
			<path class="st2" d="M565.9,100.6l12-3.5"/>
			<path class="st2" d="M567.2,105l12-3.5"/>
			<path class="st2" d="M568.5,109.4l12-3.5"/>
		</g>
		<path class="st2" d="M1631,792.7h432.7"/>
	</g>
	<g id="Calque_1_00000100352759729023046620000014757851062494209438_">
		<g id="Calque_4">
			<g>
				<path class="st2" d="M1618.1,618.6V501.7c0-13.5-4-26.7-11.4-38c-10.9-16.6-27.9-28.4-47.4-32.8l-1.2-0.3c0,0-3.2,47.2,48,53.5"
					/>
				<path class="st2" d="M1618.1,634.3V517.5c0-13.5,4-26.7,11.4-38c10.9-16.6,27.9-28.4,47.4-32.8l1.2-0.3c0,0,3.2,47.2-48,53.5"/>
			</g>
			<path class="st2" d="M1618.1,610.5v-67.9c0-7.9-2.3-15.5-6.6-22.1c-6.4-9.7-16.2-16.5-27.5-19l-0.7-0.2c0,0-1.8,27.4,27.9,31"/>
			<path class="st1" d="M1578.8,602.9h78.6v189.8h-78.6V602.9z"/>
			<path class="st2" d="M305.7,792.7H1678"/>
		</g>
		<g id="Calque_3-2">
			<path class="st5" d="M1000.7,795.9h81.4l87-221.7V277.9l-92.3,63.6c0,0-67.6,283.6-63.2,434.7L1000.7,795.9L1000.7,795.9z"/>
			<path d="M1105.6,735.9l63.4-161.6v-198c-5.1-3.5-11.1-5.4-17.4-5.5c-41.4,0-74.9,91.4-74.9,204.2
				C1076.6,640.3,1088,698.5,1105.6,735.9L1105.6,735.9z"/>
			<path class="st5" d="M1237.2,302.4c0,87.6-10.8,493.4-10.8,493.4h-98.2l11.5-16.9c-55.2-151.1-35.6-470.2-35.6-470.2
				L1237.2,302.4L1237.2,302.4z"/>
			<path class="st5" d="M1130.5,33.3l51.3,12.6v70l-51.3-12.6V33.3L1130.5,33.3z"/>
			<circle cx="1159.4" cy="74.8" r="1.4"/>
			<circle cx="1138.3" cy="74.8" r="1.4"/>
			<path class="st2" d="M1133.9,61.9h10.6v21.2"/>
			<path class="st2" d="M1151.5,61.9h10.7"/>
			<path class="st8" d="M1185.6,72.3V73l0,0c0,4-3.2,7.2-7.2,7.2v-7.4C1178.4,68.2,1185.2,67.7,1185.6,72.3z"/>
			<g>
				<path class="st2" d="M1185.6,72.9L1185.6,72.9c0,4-3.2,7.2-7.2,7.2"/>
				<path class="st9" d="M1156.4,81L1156.4,81c0,4.1-3.3,7.3-7.3,7.3"/>
				<g>
					<path class="st2" d="M1181.8,116l-12.9-3.2"/>
					<path class="st10" d="M1149.1,84.2l-4.6-1.2"/>
					<path class="st2" d="M1130.4,77.1c-4.1,21.1-1.9,38.7,24.2,38.1c26.1-0.7,21.8-35.2,21.8-35.2"/>
					<path class="st2" d="M1170.3,81c2.2-5.7,1.6-16.1,1.6-16.1c-5.5-1.7-6.3-12.4-6.3-12.4s-38.5-0.8-40.2-11.9
						c-1.6-11.1,41.2-20.8,54.9-9.5c13.8,11.3,4.1,38.9,4.1,38.9"/>
				</g>
			</g>
			<path class="st1" d="M1235.5,190.2c0-5.5-0.7-11.1-2-16.5c-9.1-37.1-46.6-59.8-83.7-50.7c-43,10.6-73.2,49.2-73.2,93.5v124.9
				l158.9-39L1235.5,190.2L1235.5,190.2L1235.5,190.2z"/>
			<path class="st4" d="M1117,277.9l-40.4,5.4l-19.2-64.9l43.3-5.3l11.5,42"/>
			<g>
				<path class="st2" d="M1139.7,779c-55.2-151.1-35.6-470.2-35.6-470.2"/>
				<path class="st2" d="M1176.6,222.1l17.1,38.1l-68.6,7.8c0,0-4.4-5.1-10.2-11.6c-5.8-6.5-3.9,10.3-3.9,10.3s-30.3-20-26.4,11.2
					c3.9,31.3,174.3,98.5,191.1,24.5s-63.2-163.7-63.2-163.7"/>
				<path class="st2" d="M1076.6,306c-24.5,8.8-48.7-23.7-45.3-74.8s45.3-40.5,45.3-40.5c5.9,1.7,10.1,7,10.6,13.1
					c1,10.8-7.8,1-10.6,0c0,0-3.2,12.9-19.2,5"/>
				<path class="st2" d="M1070,189.9c10.9-19.6,26-36.5,44.1-49.6"/>
			</g>
		</g>
		<g id="Calque_1-2">
			<path class="st4" d="M1549.3,762.7c2-197.6-81.5-432-81.5-432l-60.1-34.1l-14,223.5l74.1,282.4l106.4-30L1549.3,762.7z"/>
			<path d="M1476.1,568.2c0-67.8-31.3-126.2-76.1-151.4l-6.5,103.5l43.8,166.9C1461.2,657.1,1476.1,614.9,1476.1,568.2L1476.1,568.2
				L1476.1,568.2z"/>
			<path class="st4" d="M1441.2,297c0,0,20.1,328.7-36.7,484.5l11.9,17.4h-101.3c0,0-11.1-418.2-11.1-508.4L1441.2,297z"/>
			<path class="st5" d="M1407.6,42.7v42.7l-52.9,12.9V26.3l52.9-12.9V42.7z"/>
			<circle cx="1377.7" cy="56" r="1.4"/>
			<circle cx="1399.4" cy="56" r="1.4"/>
			<path class="st2" d="M1393.1,64.4V42.6h11"/>
			<path class="st2" d="M1375.1,42.7h11"/>
			<path class="st5" d="M1358.1,53.9v7.6c-4.1,0-7.4-3.3-7.4-7.4v-0.7C1351.2,48.7,1358.1,49.1,1358.1,53.9z"/>
			<g>
				<path class="st2" d="M1358.1,61.5c-4.1,0-7.4-3.3-7.4-7.4"/>
				<path class="st9" d="M1388.3,69.8c-4.1,0-7.5-3.4-7.5-7.5"/>
				<g>
					<path class="st2" d="M1407.6,85.4l-52.9,12.9"/>
					<path class="st10" d="M1393.1,64.4l-4.8,1.2"/>
				</g>
			</g>
			<path class="st5" d="M1304.1,174.9v115.6l163.7,40.2V202c0-45.6-31.1-85.4-75.4-96.3c-38.2-9.3-76.9,14-86.2,52.1
				C1304.7,163.5,1304.1,169.2,1304.1,174.9L1304.1,174.9L1304.1,174.9z"/>
			<g>
				<path class="st2" d="M1441.2,297c0,0,20.1,328.7-36.7,484.5"/>
				<path class="st2" d="M1358.1,53.9c0,0,15.9-5.9,12.8-24h37.9"/>
				<path class="st2" d="M1351.4,51.5c0,0-16.9-42.4,22.2-41c39.1,1.5,41.6,2.2,42.9,8.9s-8.9,14.3-8.9,14.3"/>
				<path class="st2" d="M1350.7,108.1c0,0-102.7,35-118.8,132.8s107.8,174.6,107.8,174.6l34.6-48.9l-55.6-100.8l55.6-60.9"/>
				<path class="st2" d="M1339.7,415.5l46.6-65.9"/>
				<path class="st2" d="M1433.6,127c0,0,70.7,36.9,80.8,106.7l23.9-90.8c0,0-10-19.9,0-22c0,0-1-41.5,26-22.8
					c26.9,18.8,47.9,271.2-88.8,255.3"/>
			</g>
		</g>
	</g>
	<g>
		<path class="st1" d="M651.1,150.8l-68.2-4.5c-5.1,29.6,17.3,118.8,17.3,118.8l53.5-45.5C627.9,173.4,651.1,150.8,651.1,150.8
			L651.1,150.8z"/>
		<path class="st5" d="M558.2,299.3c0,0,144.2,293.4-36.4,306.9S290.5,464.4,290.5,464.4l-23.9-11.2l74.6-49.9l101.3,49.9L475.8,303
			"/>
		<path d="M481.7,416.3c-12.7,0-24.7,6.9-35.3,19.1l-3.9,17.8L436,450c-18.7,30.9-30.8,80.2-30.8,135.8v2.2
			c30.9,13.8,69.3,21.9,116.6,18.3c13.9-1,25.9-3.8,36.2-7.9c0.1-4.2,0.2-8.4,0.2-12.6C558.2,492.1,523.9,416.3,481.7,416.3
			L481.7,416.3z"/>
		<path class="st5" d="M532.4,305.6c0,0,19.5,318-35.5,468.6l11.5,16.9h-97.9c0,0-10.7-404.5-10.7-491.8L532.4,305.6z"/>
		<path class="st5" d="M501.3,59.5v41.3l-51.2,12.6V43.7l51.2-12.6V59.5z"/>
		<circle cx="472.4" cy="72.5" r="1.4"/>
		<circle cx="493.4" cy="72.5" r="1.4"/>
		<path class="st2" d="M487.2,80.6V59.5h10.6"/>
		<path class="st2" d="M469.8,59.5h10.6"/>
		<path class="st5" d="M453.5,70.4v7.3c-4,0-7.2-3.2-7.2-7.2l0,0c0-0.2,0-0.4,0-0.6C446.7,65.4,453.5,65.9,453.5,70.4z"/>
		<g>
			<path class="st2" d="M453.5,77.7c-4,0-7.2-3.2-7.2-7.2l0,0"/>
			<path class="st9" d="M482.6,85.8c-4,0-7.2-3.2-7.2-7.2l0,0"/>
			<g>
				<path class="st2" d="M501.3,100.9l-51.2,12.6"/>
				<path class="st10" d="M487.2,80.7l-4.6,1.1"/>
				<path class="st2" d="M455.3,68.3c0,0,24.1-10.9,31.2-20.3v6.4c0,0,13-4.8,16.2-10.5"/>
				<path class="st2" d="M501.3,55.3c0,0,11.3-4.8,8.2-15.3c-3.1-10.5-26.9-18.5-44.7-13.5c0,0-52.3,10.2-14.7,64.8"/>
			</g>
		</g>
		<path class="st4" d="M558.2,187.5v111.8l-158.4,38.9V213.7c0-44.2,30.1-82.6,73-93.1c37-9.1,74.3,13.5,83.4,50.5
			C557.5,176.4,558.2,181.9,558.2,187.5L558.2,187.5z"/>
		<g>
			<path class="st2" d="M410.5,791.1c0,0-10.7-404.5-10.7-491.8"/>
			<path class="st2" d="M532.4,305.6c0,0,19.5,318-35.5,468.6l11.5,16.9"/>
			<path class="st2" d="M439.6,135.9c0,0-69.7,40.1-57.5,126.3c12.2,86.2,177,54.1,217.5,6.4l3.2-20.6c0,0,22.9-28,9.8-22
				c-13,5.9-144.9,15.6-144.9,15.6l2-30.2"/>
			<path class="st2" d="M538.8,139.6c0,0,41.3,32.5,53,90.4"/>
			<path class="st2" d="M565.3,316c0,0,63.2,15.3,90.9-56.4c23.2-60.1,5.1-88.8-3.2-90.7s-10.9,9.7-10.9,9.7"/>
		</g>
	</g>
	<g>
		<g>
			<path class="st5" d="M1722.8,578.5v178.6l-11.8,25.4h80.8l26.2-250.2L1722.8,578.5z"/>
			<path class="st5" d="M1740.8,324.4l125.4-7.3v136v335.4h-84.8l10.4-18.7L1740.8,324.4z"/>
			<path class="st5" d="M1746.9,95.5v16.7c0,13,8.8,24.2,21.4,27.3l26.7,6.6V80.6l-22.2-5.4c-11.2-2.8-22.5,4.1-25.3,15.3
				C1747.1,92.2,1746.9,93.8,1746.9,95.5L1746.9,95.5z"/>
		</g>
		<path class="st2" d="M1746.9,112.3c0,13,8.8,24.2,21.4,27.3l26.7,6.6"/>
		<circle cx="1774.1" cy="107.6" r="1.3"/>
		<circle cx="1754.4" cy="107.6" r="1.3"/>
		<path class="st2" d="M1760.2,115.3V95.5h-9.9"/>
		<path class="st2" d="M1776.5,95.5h-9.9"/>
		<path class="st5" d="M1791.9,105.7v6.9c3.7,0,6.7-3,6.7-6.7c0-0.2,0-0.4,0-0.6C1798.2,101,1791.9,101.5,1791.9,105.7z"/>
		<g>
			<path class="st2" d="M1791.9,112.5c3.7,0,6.7-3,6.7-6.7"/>
			<path class="st9" d="M1765.6,117.6c1.7,1.8,4.6,1.8,6.3,0l0,0"/>
			<g>
				<path class="st10" d="M1760.2,115.3l4.3,1.1"/>
				<path class="st2" d="M1747.9,89.2c0,0,0.7-11,10.7-10.3s24.2-0.2,25.4,8.8s4.6,16.3,7.9,16.3"/>
				<path class="st2" d="M1746.9,102.3c0,0-35.3-64,27.2-68.5s91.9,78.2,21.1,90.9"/>
			</g>
			<g>
				<path class="st11" d="M1796.7,117.4c0,2.7-2.2,4.9-4.8,4.9s-4.9-2.2-4.9-4.8c0-2.7,2.2-4.9,4.8-4.9l0,0"/>
				<path class="st11" d="M1746.9,121.1c-2.1,1.7-5.1,1.5-6.8-0.6c-1.7-2.1-1.5-5.1,0.6-6.8c0.9-0.7,2-1.1,3.1-1.1"/>
			</g>
		</g>
		<path class="st1" d="M1866.2,320.6l-148.7,36.6v230l226-35.6L1866.2,320.6z"/>
		<path class="st4" d="M1866.2,222.3v115.8l-148.7,40.3v-129c0-45.7,28.3-85.5,68.6-96.4c34.7-9.4,69.8,14,78.3,52.3
			C1865.6,210.8,1866.2,216.5,1866.2,222.3L1866.2,222.3z"/>
		<g>
			<path class="st2" d="M1781.4,788.4l10.4-18.7l-28.7-250.6"/>
			<path class="st2" d="M1844.9,173.6c0,0,71,61.3,24.5,147.1s-196.4-36.9-198.2-46.5s13.9-12.1,27.2-4.8c0,0-1.8-9.9,5.4-7.1
				s10.9,11.3,10.9,11.3l102.1,4.2l-13.3-56.2"/>
			<path class="st2" d="M1748.7,275l-44.9-118.2l-102.7,27.9l63.4,141.8l56.8-11.5"/>
		</g>
		<path d="M1737.7,319c0,0,57.3,74.3,142,41.8l-13.7-40.4C1838.4,361.5,1782.5,344.3,1737.7,319L1737.7,319z"/>
		<g>
			<path class="st2" d="M1747.9,172.8l-26.7,24"/>
			<path class="st2" d="M1625.4,233.2c0,0-16.8,63,23.1,89.7c39.9,26.7,69,6.8,69,6.8"/>
		</g>
	</g>
	<g>
		<path class="st1" d="M1943.5,597.1c-108.2-40.4,34.6-58.3,34.6-58.3s36-172.9,100-184.9c63.9-12.1,115,166.3,57.4,224.5
			S1943.5,597.1,1943.5,597.1L1943.5,597.1L1943.5,597.1z"/>
		<path class="st2" d="M2135.5,578.4c-57.5,58.2-192,18.7-192,18.7"/>
		<path class="st2" d="M2039.5,792.7V610.2"/>
		<path d="M1938.5,584.8c35.3-12.1,39.7-46,39.7-46s-97.4,12.2-70.4,39.2C1915.8,586,1927.7,588.5,1938.5,584.8L1938.5,584.8z"/>
	</g>
</g>
<g id="Calque_2">
	<path class="st1" d="M737.7,800v-27.3c0,0,76.1-58.9,177.8-152.9s24-326.6,24-326.6l-105.8,26L817.8,478L667.6,725.7L737.7,800z"/>
	<path d="M743.7,622c0,48.5,10.9,92.2,28.3,123.1c31.8-26,83.1-69.5,143.5-125.3c3-2.8,5.8-5.6,8.5-8.6
		c-3-88.5-42.2-158.5-90.1-158.5c-4.7,0-9.3,0.7-13.8,2l-2.3,23.4l-73.2,120.8C744,606.4,743.7,614.1,743.7,622L743.7,622z"/>
	<path class="st1" d="M864.7,779.5l11.4,20.5H767.9l9.9-508.6l21.2-8.6l116.5,8L864.7,779.5z"/>
	<path class="st5" d="M890.3,46.2c0-1.8-0.2-3.7-0.7-5.5c-3-12.3-15.5-19.9-27.8-16.8l-24.3,6v71.9l29.3-7.2
		c13.8-3.4,23.5-15.8,23.5-30V46.2L890.3,46.2z"/>
	<path class="st2" d="M837.6,101.7l29.3-7.2c13.8-3.4,23.5-15.8,23.5-30"/>
	<circle cx="860.5" cy="59.5" r="1.4"/>
	<circle cx="882.2" cy="59.5" r="1.4"/>
	<path class="st2" d="M886.7,46.2h-10.9v21.7"/>
	<path class="st2" d="M868.8,46.2h-10.9"/>
	<path class="st5" d="M833.7,56.8c0,0.2,0,0.4,0,0.7c0,4.1,3.3,7.4,7.4,7.4v-7.5C841.1,52.7,834.1,52.2,833.7,56.8z"/>
	<g>
		<path class="st2" d="M833.7,57.5c0,4.1,3.3,7.4,7.4,7.4"/>
		<path class="st9" d="M863,70.4c1.9,1.9,5,1.9,6.9,0"/>
		<path class="st10" d="M871.1,69.1l4.8-1.2"/>
	</g>
	<path class="st5" d="M939.5,178c0-5.7-0.7-11.4-2.1-16.9c-9.4-38.1-47.8-61.4-85.9-52c-44.2,10.9-75.2,50.5-75.2,96v128.3
		l163.2-40.1L939.5,178L939.5,178z"/>
	<g>
		<path class="st2" d="M915.5,290.7l-50.9,488.7l11.4,20.5"/>
		<path class="st2" d="M837.6,76c-2.2,14.9,0.8,29.4,5.1,46.6c4.3,17.2-42.3,55.3-44.3-20.9c-1.6-61.2,26.9-78.4,38.1-82.8
			c2.7-1,5.3-2.3,7.8-3.9c17.6-11,48.8-0.5,54.7,15c6.3,16.6-8.7,29.4-8.7,29.4"/>
		<path class="st11" d="M821.3,152.6c13.3-1,18.7-10.3,18.7-10.3"/>
		<g>
			<path class="st2" d="M825,163.2c-6.7,52.7,53.7,126.3,63.7,100.8c6-15.3,0.1-31.9-5.5-42.9c-4-7.8-6.4-16.3-6.9-25
				c-2.1-36.9-36.1-44.6-36.1-44.6"/>
			<path class="st2" d="M890.5,241.9c0,0,37.1-13.2,45.1-10.6c8,2.7-6.6,15.2-6.6,15.2c23.9,57.7-137.9,120-167.8,60.3
				c-29.8-59.7,30.1-154.3,30.1-154.3"/>
			<path class="st2" d="M786.3,269.2l68.9-20.1"/>
			<path class="st2" d="M947.6,321.3c72.2,12.4,56.9-160.9,56.9-160.9c12.6-13.9,0.7-23.9,0.7-23.9s16.2-5.2,18.1-7.8
				c2-2.6-18.1-14.1-43.3,5.8s-31.8,94.1-31.8,94.1c2.4-85.8-36.9-107.3-36.9-107.3"/>
		</g>
	</g>
</g>
</svg>
