<?xml version="1.0" encoding="utf-8"?>
<!-- Generator: Adobe Illustrator 27.1.0, SVG Export Plug-In . SVG Version: 6.00 Build 0)  -->
<svg version="1.1"
	 id="svg2" xmlns:sodipodi="http://sodipodi.sourceforge.net/DTD/sodipodi-0.dtd" xmlns:inkscape="http://www.inkscape.org/namespaces/inkscape" xmlns:svg="http://www.w3.org/2000/svg" xmlns:cc="http://creativecommons.org/ns#" xmlns:rdf="http://www.w3.org/1999/02/22-rdf-syntax-ns#" xmlns:dc="http://purl.org/dc/elements/1.1/"
	 xmlns="http://www.w3.org/2000/svg" xmlns:xlink="http://www.w3.org/1999/xlink" x="0px" y="0px" viewBox="0 0 2613.4 528.5"
	 style="enable-background:new 0 0 2613.4 528.5;" xml:space="preserve">
<style type="text/css">
	.st0{fill:#D20A28;}
	.st1{fill:#720918;}
	.st2{fill:#FFDC00;}
</style>
<sodipodi:namedview  bordercolor="#666666" borderopacity="1" gridtolerance="10" guidetolerance="10" id="namedview72" inkscape:current-layer="svg2" inkscape:cx="-40.450386" inkscape:cy="34.10135" inkscape:pageopacity="0" inkscape:pageshadow="2" inkscape:window-height="790" inkscape:window-maximized="1" inkscape:window-width="1440" inkscape:window-x="0" inkscape:window-y="1" inkscape:zoom="0.38956096" objecttolerance="10" pagecolor="#ffffff" showgrid="false">
	</sodipodi:namedview>
<g id="g4198" transform="matrix(8.3524744,0,0,8.3444069,142702.1,158874.35)">
	<g id="g4165">
		<path id="path4031" inkscape:connector-curvature="0" class="st0" d="M-17010.1-18978.5l-68.9-6.9c-5-14.4-3.1-31.4,5.7-46.4
			l57.5-5.8C-17022.7-19019-17020.8-18997.4-17010.1-18978.5L-17010.1-18978.5z"/>
		<g id="g4153">
			<g id="g4033" transform="matrix(0.95406909,0,0,0.95406909,-999.0216,-999.41633)">
				<path id="path4035" inkscape:connector-curvature="0" class="st1" d="M-16817-18898c-0.1,0-0.4,0-0.4,0.1c0,0.2,0.1,0.3,0.2,0.5
					c0.5,0.5,0.5,0.8,0.4,0.9c-0.1,0.1,0,0.4-0.3-0.1c-0.4-0.7-1.3-1-2.1-0.7c-0.1,0-0.2,0-0.2,0.2c0,0.1,0.1,0.3,0.2,0.4
					c-0.5-0.1-1.1,0.1-1.4,0.5c-0.1,0.1,0,0.3,0.1,0.4c0,0.1,0.1,0.1,0.1,0.1c-0.7,0.4-1,1.2-1,1.9c0.3,1.8,2.2,2.7,5.1,2.3
					c1.8-0.2,3.6-0.7,5.2-1.3c1.1-0.4,2.3-0.8,3.8-1.2c2-0.7,4.2-0.6,6.2,0.4c0.7,0.3,1.2,1,1.5,1.7c0.1,0.5,0,1-0.3,1.3
					c-0.8,0.9-2,1.4-3.2,1.2c-1.4-0.1-2.8-0.2-4.2-0.5c-1.1-0.2-2.4-0.4-4.4-0.6c-1.5-0.2-3.1-0.2-4.6-0.1h-1
					c-0.9,0.1-1.8,0-2.7-0.1c-1.1-0.1-2.2-0.5-3.2-1.2c-0.1-0.2,0.5-0.4,1-0.5c0.2,0,0.3-0.2,0.3-0.4c0-0.1-0.1-0.2-0.3-0.3
					c-0.2-0.1-1-0.3-1-0.7c-0.1-0.5-0.2-1-0.4-1.5c0.2-0.4,0.3-0.9,0.1-1.4c0-0.2-0.2-0.4-0.3-0.6c-0.5-0.1-1.1,0-1.5,0.4
					c-0.5-0.2-1.1-0.3-1.7-0.4h-0.1c-0.6,0-1.3,0.2-1.9,0.4c-0.4-0.4-1-0.5-1.5-0.4c-0.2,0.1-0.3,0.3-0.3,0.6
					c-0.1,0.5-0.1,1,0.1,1.4l0.1,0.2c-0.1,0.5-0.1,0.9-0.1,1.4c0,0.3-0.8,0.6-1.1,0.6c-0.1,0-0.3,0.1-0.3,0.2c0,0.2,0.1,0.4,0.3,0.4
					c0.6,0.1,1,0.4,1,0.5c-0.1,0.4-0.9,0.8-1.1,0.9c-0.3,0.1-0.2,0.1-0.2,0.3c0,0.2,0.2,0.3,0.3,0.3c0.3,0,1,0.2,1.1,0.5
					c0,0.2-0.1,0.4-0.3,0.5c-1.4-0.1-2.9-0.5-4.2-1c-0.8-0.4-2.1-1.1-2.3-1.3c-0.8-0.6-1.5-1.3-2.1-2.1c-0.1-0.3-0.3-0.5-0.4-0.7
					c-0.3-0.3-0.7-0.5-1.2-0.6l-0.2-0.3c-0.3-0.4-1-0.5-2.2-0.3l-0.2-0.1c-0.7-0.5-1.7,0.3-1.8,0.4c-0.1,0.1-0.1,0.2,0,0.4
					c0.1,0.1,0.2,0.2,0.3,0.2c0.2,0,0.4,0,0.5,0c0.1,0.2,0.2,0.3,0.3,0.5l-0.4,0.2c-0.1,0.1-0.1,0.2,0,0.4c0,0.1,0.2,0.2,0.3,0.2
					c0.3,0,0.5,0,0.8,0.1l0.4,0.4l0.1,0.1c-0.2,0.1-0.4,0.2-0.5,0.2c-0.1,0.1-0.1,0.3,0,0.4c0,0.1,0.2,0.2,0.3,0.2
					c0.3,0,0.5,0,0.8,0.1l0.2,0.4c0.1,0.3,0.3,0.6,0.5,0.8c0.3,0.2,0.6,0.4,1,0.5c0.4,0.1,0.7,0.2,1,0.5l0.2,0.2l0.3,0.3
					c0.2,0.2,0.3,0.3,0.3,0.3s-0.1,0.1-0.2,0.2c-0.1,0.1-0.1,0.3,0,0.4c0.1,0.1,0.2,0.2,0.3,0.2c0.8-0.2,1.3,0,1.4,0.2
					c0.1,0.2-0.1,0.3-0.5,0.5c-0.1,0.1-0.2,0.3-0.1,0.4c0.1,0.1,0.2,0.2,0.4,0.1c0.9-0.3,1.6-0.2,1.7,0c0.1,0.2-0.2,0.4-0.7,0.7
					c-0.1,0.1-0.2,0.3-0.1,0.4c0.1,0.1,0.3,0.2,0.4,0.1c1-0.4,1.7-0.4,1.9-0.1c0.1,0.3-0.2,0.7-0.9,1.1c-0.1,0,0,0.1-0.1,0.2
					c0,0.2,0.1,0.3,0.3,0.3c0.1,0,0.1,0,0.2,0h0.1c0.6-0.4,1.3-0.5,1.9-0.3c0.1,0.1,0.2,0.1,0.3,0.2c0,0,0.1-0.1-0.2,0.2
					c-4.3,3.7-5.4,4.8-6.8,5.3h-0.2c-0.2-0.1-0.5-0.1-0.7-0.1c-0.4,0-0.7,0.2-0.9,0.5h-0.4c-0.5,0-1,0.2-1.4,1.1
					c-0.1,0.3-0.2,0.7-0.2,1.1c0,0.1,0.1,0.2,0.2,0.3c0.2,0.1,0.5,0.1,0.7,0.1c0.2,0,0.3-0.1,0.3-0.3c0-0.1,0.1-0.2,0.1-0.3
					c0,0.1,0,0.2,0,0.4c0,0.1,0.1,0.3,0.3,0.3c0.3,0,0.5,0,0.8,0c0.1,0,0.2-0.1,0.2-0.1c0.1-0.1,0-0.1,0-0.2c0.1-0.3,0.2-0.7,0.4-1
					c-0.1,0.3-0.1,0.7-0.2,1c0,0.2,0.1,0.3,0.3,0.3c1,0.1,2,0.1,3-0.1c0.8-0.2,0.9-0.5,1.1-0.8l0.1-0.2c0.1-0.3,0.3-0.5,0.6-0.7
					c0.3-0.3,0.6-0.5,1-0.4c0.1,0,0.1,0.1,0.2,0.2c0,0.1,0.2,0.2,0.3,0.2c0.1,0,0.3-0.1,0.3-0.2c0.2-0.7,0.5-1.1,0.8-1
					c0.2,0,0.3,0.3,0.4,0.6c0,0.2,0.2,0.3,0.4,0.3c0.1,0,0.2-0.1,0.3-0.3c0.1-0.9,0.4-1.4,0.7-1.4c0.2,0,0.4,0.3,0.5,0.9
					c0.1,0.2,0.2,0.2,0.4,0.2c0.1,0,0.2-0.1,0.2-0.2c-0.1-0.5,0.1-1.1,0.5-1.5c0.1-0.1,0.2-0.1,0.3-0.2c0.3,0,0.6,0.4,0.7,1.1
					c0,0.2,0.2,0.3,0.3,0.3c0.2,0,0.3-0.2,0.3-0.3c0,0,0,0,0,0v-0.1c-0.1-0.5,0.1-1.1,0.4-1.5c0.1-0.1,0.2-0.2,0.4-0.2
					c0.3,0,0.7,0.3,0.9,0.8c0.1,0.2,0.2,0.2,0.4,0.2c0.1,0,0.2-0.2,0.2-0.3c0-0.4,0.6-0.8,1.5-0.9l0.3,0c0.5,0,1-0.1,1.5-0.3
					c0.4-0.3,0.8-0.6,1.1-1c0.7-0.9,1.6-1.6,2.6-2.1c0.9-0.3,1.8-0.6,2.7-0.8c-0.3,0.1-0.5,0.3-0.7,0.5c-0.6,1.1-0.4,2.4,0.4,3.3
					l0.1,0.2c0.6,0.8,0.7,1,0.5,1.1c-0.3,0.3-0.7,0.6-1,0.8c-0.3,0.2-0.3,0.3-0.4,0.3l-0.3,0.3c-0.2,0.2-0.4,0.5-0.5,0.5h-0.2
					c-0.2-0.1-0.4-0.1-0.6-0.1c-0.3,0-0.7,0.1-0.8,0.4h-0.3c-0.6,0-1.2,0.4-1.4,1c-0.1,0.3-0.2,0.7-0.2,1c0,0.1,0.1,0.2,0.2,0.3
					c0.2,0.1,0.5,0.1,0.7,0.1c0.1,0,0.3-0.1,0.3-0.2c0,0.1,0.1,0.2,0.3,0.2c0.3,0,0.5,0,0.8,0c0.1,0,0.2-0.1,0.2-0.1
					c0-0.1,0-0.2,0-0.2c0-0.3,0.2-0.5,0.3-0.8c-0.1,0.3-0.1,0.5-0.1,0.8c0,0.2,0.1,0.3,0.3,0.3c0,0,0,0,0,0s0.7,0.1,1.4,0.1
					c0.5,0,0.9,0,1.4-0.1c0.8-0.2,1-0.5,1.1-1c0,0,0,0,0-0.1c0-0.2,0.1-0.4,0.2-0.5c0.7-0.8,1.5-1.2,1.8-1l0.1,0.1
					c0.1,0.1,0.3,0.1,0.4-0.1c0.1-0.1,0.1-0.2,0-0.3c-0.2-0.3-0.2-0.6-0.1-0.7c0.1-0.1,0.6-0.1,1.1,0.1c0.1,0,0.2,0,0.2,0
					c0.2-0.1,0.2-0.3,0.2-0.4c0-0.1-0.1-0.1-0.2-0.2c-0.6-0.3-1.1-0.7-1-1c0.1-0.3,0.6-0.5,1.2-0.6c0.2,0,0.3-0.1,0.3-0.3
					c0-0.1-0.1-0.3-0.2-0.3l-0.3-0.1c-0.6-0.1-1.2-0.3-1.6-0.8c0-0.2,0.4-0.5,1.3-0.7c0.4,0.1,0.8,0.3,1.2,0.6
					c0.8,0.5,1.6,0.9,2.5,1.1c1.5,0.3,3,0.5,4.6,0.5c0.7,0.5,1,1.4,0.7,2.2c-0.1,0.3-0.4,0.8-0.6,0.8h-0.2c-0.2-0.1-0.5-0.1-0.7-0.1
					c-0.4,0-0.7,0.1-1,0.4h-0.3c-0.6,0-1.2,0.4-1.4,1c-0.1,0.3-0.2,0.7-0.2,1.1c0,0.1,0.1,0.2,0.2,0.3c0.2,0.1,0.5,0.1,0.7,0.1
					c0-0.2,0.2-0.3,0.3-0.2c0.1,0,0.2,0.1,0.2,0.2c0.3,0,0.6,0,0.9,0c0.1,0,0.2-0.1,0.2-0.1c0-0.1,0-0.2,0-0.3
					c0.1-0.4,0.2-0.7,0.5-1c-0.1,0.3-0.2,0.7-0.2,1c0,0.2,0.1,0.3,0.3,0.3c0,0,0,0,0,0c0.1,0,0.9,0.1,1.7,0.1c0.5,0,1,0,1.5-0.1
					c0.7-0.2,1.1-0.9,1.4-2.1c0-0.2,0.1-0.4,0.1-0.5c0-0.5-0.1-1.1-0.1-1.9c0-1.1,0.4-1.7,0.8-1.7h0.1c0.2,0,0.3-0.2,0.3-0.3
					c0-0.1-0.1-0.2-0.2-0.3c-0.8-0.2-1.1-0.5-1-0.6c0-0.1,0.2-0.3,0.6-0.4h0.1c0.2-0.1,0.2-0.3,0.1-0.4c-0.1-0.1-0.2-0.2-0.3-0.2
					c-0.6,0.1-1.2,0-1.3-0.3c-0.1-0.3,0-0.5,0.3-0.8l0-0.1c0.1-0.1,0-0.3-0.1-0.4c-0.1-0.1-0.3-0.1-0.4-0.1
					c-0.7,0.4-1.4,0.7-2.2,0.8h-0.3c-0.5,0-1-0.1-1.5-0.3c-0.8-0.3-1.5-0.8-2-1.5c-0.2-0.2-0.4-0.4-0.6-0.6l-0.3-0.2l0.5,0
					c1.1,0,2.2,0,3.3,0.1l0,0c2.4,0.1,4.6-0.7,5.5-2.3c0.7-1.1,0.7-2.4,0-3.5c-0.9-1.5-2.5-2.5-4.2-2.8c-1.9-0.3-3.8-0.2-5.7,0.3
					c-0.8,0.2-1.7,0.5-2.8,0.8c-1.9,0.7-3.9,1.3-5.9,1.7c-0.8,0.2-1.6,0.1-2.3-0.2c-0.1-0.1-0.2-0.2-0.2-0.4c0-0.1,0.4-0.4,1.5-0.4
					c4.8,0,6.1-2.5,6.2-2.8c0.1-0.2,0-0.4-0.2-0.4c-0.1-0.1-0.2,0-0.3,0c-0.9,0.5-2,0.8-3.1,0.8c-0.2-0.1-0.3-0.2-0.5-0.4
					C-16815.8-18897.7-16816.4-18898-16817-18898z M-16827.3-18891.3c0.4,0.2,0.8,0.2,1.2,0.2c0,0.1-0.1,0.2-0.1,0.3
					c-0.1,0.1-0.1,0.2-0.2,0.3c-0.2,0.5-0.4,0.7-0.8,0.7c-0.5,0-0.6-0.3-0.8-0.8c0-0.1-0.1-0.2-0.2-0.3c-0.1-0.1-0.1-0.2-0.1-0.3
					C-16828-18891.1-16827.6-18891.2-16827.3-18891.3L-16827.3-18891.3L-16827.3-18891.3z"/>
				<g id="g4037">
					<path id="path4039" inkscape:connector-curvature="0" class="st2" d="M-16817.4-18897.9c0.7,0.7,0.7,1.3,0.4,1.4
						c-0.2,0.1-0.4,0-0.5-0.1c-0.4-0.6-1.1-0.8-1.8-0.6c0,0,0.8,0.3,0.7,0.7c0,0.1-0.1,0.1-0.2,0.1c-0.1,0-0.2,0-0.2,0
						c-0.5-0.3-1.1-0.2-1.5,0.3c0,0,0.6-0.1,0.7,0.1c-0.9,0.4-1.6,1.1-1.5,2c0.3,1.9,2.5,2.3,4.8,2.1c2.7-0.3,5.1-1.5,8.9-2.6
						c3.9-1.1,7.4,0.1,8,2.3c0.3,1.2-0.7,2.9-3.9,2.8c-3.2-0.1-3.9-0.6-8.6-1.1c-1.9-0.2-3.7-0.2-5.6,0c-0.9,0.1-1.9,0-2.8-0.1
						c-1-0.1-3.4-0.6-3.4-1.3c0-0.7,1.2-0.8,1.2-0.8s-1.2-0.2-1.3-1c0-0.5-0.2-1.1-0.3-1.6l0.1-0.1c0.3-0.5,0.2-1.1-0.1-1.5
						c-0.5,0-0.9,0.1-1.3,0.5c-0.6-0.3-1.2-0.5-1.9-0.6c-0.7,0-1.3,0.2-1.9,0.5c-0.4-0.4-0.9-0.5-1.4-0.5c-0.3,0.4-0.4,1-0.1,1.5
						c0,0.1,0.1,0.2,0.2,0.3c-0.2,0.5-0.3,1-0.3,1.5c0,0.6-1.2,1-1.2,1c0,0,1.3,0.3,1.2,0.9c-0.1,0.7-1.3,1.1-1.3,1.1
						s1.2,0.1,1.3,0.7c0.1,0.3-0.2,0.5-0.5,0.8c-1.5-0.1-3.1-0.4-4.5-1c-0.8-0.4-1.6-0.8-2.4-1.3c-0.8-0.6-1.5-1.3-2.1-2.1
						c-0.1-0.2-0.2-0.5-0.4-0.7c-0.3-0.3-0.7-0.5-1.2-0.5c-0.1-0.2-0.3-0.4-0.3-0.4c-0.3-0.4-1.3-0.3-2.1-0.1
						c-0.1-0.1-0.1-0.2-0.2-0.2c-0.5-0.4-1.4,0.4-1.4,0.4s0.7-0.1,0.8,0.1l0.6-0.2c-0.2,0.1-0.3,0.3-0.3,0.6l0.1,0.2
						c0.7-0.2,1.4-0.3,2.2-0.2c-0.4,0.1-0.7,0.3-1,0.5l-0.1-0.1c-0.6-0.4-1.6,0.3-1.6,0.3c0.3,0,0.7,0,1,0.2l0.1,0.1l0.5-0.4
						c-0.1,0.2-0.2,0.5-0.2,0.7l0.1,0.1l0.2,0.2c0,0,2.2-0.6,2.8,0c-0.6-0.1-1.2,0.1-1.7,0.4c-0.6-0.4-1.6,0.3-1.6,0.3
						c0.3,0,0.7,0,1,0.2l0.1,0.1l0.4-0.3c-0.1,0.2-0.2,0.5-0.1,0.7c0.1,0.3,0.3,0.5,0.5,0.7c0.5,0.5,1.3,0.3,1.9,1l0.5,0.4
						c0.2,0.1,0.3,0.3,0.4,0.6c0,0.2-0.1,0.4-0.3,0.5c0.8-0.2,1.6,0,1.7,0.4c0.1,0.4-0.1,0.6-0.6,1c1-0.4,1.9-0.3,2.1,0.1
						c0.2,0.4-0.2,0.8-0.7,1.2c1-0.5,2-0.5,2.3,0c0.3,0.5-0.2,1-0.9,1.5h0.1c0.7-0.4,1.5-0.5,2.2-0.3c0.8-0.5,1.6-1.1,2.2-1.8
						c-0.5,1-1.2,1.9-2,2.7c-0.3,0.3-2.1,1.8-2.4,2.1c-1.6,1.2-3.2,2.6-3.3,2.6c-0.4,0.2-0.9,0.5-1.2,0.5c-0.3-0.1-0.6-0.1-0.9-0.2
						c-0.3,0-0.6,0.2-0.7,0.5c-0.2,0-0.5-0.1-0.6-0.1c-0.4,0-0.8,0.5-1.1,1.1c-0.1,0.3-0.2,0.6-0.1,1c0.2,0.1,0.4,0.1,0.6,0.1
						c0.2-0.7,0.6-1.4,1.2-1.8c-0.3,0.6-0.4,1.2-0.5,1.8c0.3,0,0.5,0,0.8,0c0-0.5,0.7-2,1.5-1.9h0.2c-0.7,0.2-0.8,1.9-0.8,1.9
						c1,0.1,1.9,0.1,2.9-0.1c0.8-0.2,0.7-0.4,1-0.9c0.1-0.3,0.3-0.5,0.6-0.7c0.3-0.4,0.8-0.6,1.3-0.5c0.2,0.1,0.3,0.2,0.4,0.4
						c0.2-0.8,0.6-1.3,1.1-1.3c0.4,0.1,0.6,0.4,0.7,0.9c0.1-1,0.5-1.7,1-1.7c0.5,0,0.7,0.5,0.8,1.1c0-1,0.4-1.9,1-1.9
						c0.6,0,1,0.6,1.1,1.4v-0.1c-0.1-1.1,0.4-2.1,1.1-2.1c0.6,0.1,1,0.5,1.2,1c0-0.6,0.8-1.1,1.8-1.2h0.4c0.5,0,0.9,0,1.4-0.2
						c1.1-0.7,1.4-1.9,3.8-3.1c1-0.4,2.1-0.7,3.1-1c1-0.3,2-0.4,3-0.4h0.1c0.3,0.1,0.5,0.2,0.7,0.4c0.6,0.5,1.1,1.2,1.5,1.8
						c0.2,0.4,0.1,0.2,0.8,0.7c0.8,0.5,1.6,0.8,2.4,1.1c1.5,0.3,3,0.5,4.5,0.6h0.1c0.9,0.6,1.2,1.6,0.9,2.6
						c-0.2,0.4-0.5,0.8-0.9,0.8c-0.3-0.1-0.6-0.1-0.9-0.2c-0.3,0-0.6,0.2-0.8,0.4l-0.5-0.1c-0.5,0-0.9,0.5-1.2,1
						c-0.1,0.3-0.2,0.6-0.2,0.9c0.2,0.1,0.4,0.1,0.6,0.1c0.1-0.7,0.6-1.4,1.2-1.8c-0.3,0.5-0.4,1.1-0.5,1.7c0.3,0,0.5,0,0.8,0
						c0-0.5,0.7-1.9,1.5-1.9h0.2c-0.7,0.2-0.8,1.9-0.8,1.9c1.1,0.1,2.1,0.1,3.2,0c0.8-0.2,1.1-1.5,1.2-1.9c0-0.2,0.1-0.3,0.1-0.5
						c0-0.5-0.1-1.2-0.1-1.9c0-1.1,0.4-2,1.1-2h0.1c-0.8-0.2-1.3-0.5-1.3-0.9h0c0-0.3,0.3-0.5,0.7-0.6c-0.7,0.1-1.4,0-1.6-0.4
						c-0.2-0.4,0-0.9,0.3-1.2c-0.7,0.4-1.5,0.6-2.3,0.7h-0.3c-0.5,0-1.1-0.1-1.6-0.2c-1.4-0.4-2-1.5-2.7-2.2
						c-0.3-0.4-0.7-0.6-1.1-0.8c0,0-0.1-0.1,0.8,0s1.5,0.2,4,0.3c4,0.2,6.8-2.5,5.2-5.3c-1.6-2.8-5.9-3.4-9.5-2.5
						c-2.2,0.6-4.9,1.8-8.7,2.6c-0.8,0.2-1.7,0.1-2.5-0.2c-0.4-0.2-0.9-1.2,1.4-1.2c4.6,0,5.8-2.3,5.9-2.6c-1,0.5-2.2,0.8-3.3,0.8
						c-0.1,0-0.1,0-0.2,0C-16816.1-18897-16816.1-18897.7-16817.4-18897.9L-16817.4-18897.9z M-16799.2-18884.5c0,0,0.1,0,0.1,0
						L-16799.2-18884.5C-16799.2-18884.5-16799.2-18884.5-16799.2-18884.5z M-16829.1-18894.4c0.1,0,0.1,0,0.2,0
						c0.6,0,0.8,0.2,0.8,0.2c-0.1,0.4-0.4,0.7-0.8,0.6c0,0,0,0,0,0c-0.3,0-0.6-0.1-0.8-0.3h0c-0.1-0.1-0.2-0.2-0.3-0.4
						C-16829.8-18894.4-16829.4-18894.5-16829.1-18894.4L-16829.1-18894.4z M-16825.8-18894.4
						C-16825.8-18894.4-16825.8-18894.4-16825.8-18894.4c0.3,0,0.6,0,0.9,0.1c-0.1,0.2-0.2,0.3-0.3,0.4c-0.2,0.2-0.5,0.3-0.8,0.3
						c-0.4,0.1-0.8-0.2-0.9-0.6c0,0,0,0,0,0c0.2-0.1,0.5-0.2,0.8-0.2C-16826-18894.4-16825.9-18894.4-16825.8-18894.4
						L-16825.8-18894.4z M-16828.3-18892.9C-16828.3-18892.9-16828.3-18892.9-16828.3-18892.9
						C-16828.3-18892.9-16828.3-18892.9-16828.3-18892.9c0,0,0.6,0.1,0.8,0.1c0.2,0,0.8-0.1,0.8-0.1c0,0,0.1,0,0.1,0.1c0,0,0,0,0,0
						l-0.8,0.5h-0.1l-0.9-0.5C-16828.4-18892.8-16828.4-18892.9-16828.3-18892.9C-16828.3-18892.9-16828.3-18892.9-16828.3-18892.9
						L-16828.3-18892.9z M-16829-18891.9c0.5,0.3,1.1,0.3,1.5,0c0.5,0.3,1.1,0.3,1.5,0c0.1-0.1,0,0.6-0.3,1
						c-0.4,0.5-0.5,1.3-1.3,1.2l0,0c-0.8,0-1-0.7-1.3-1.2C-16829.1-18891.5-16829.1-18892-16829-18891.9L-16829-18891.9z
						 M-16823.3-18890.8c-0.1,0.1-0.2,0.2-0.2,0.3c-0.1,0.5,0.5,1.2,1.3,1.8c-1-0.2-1.5,0-1.8,0.3v0c-0.3,0.3,0.1,1,0.4,1.6
						c-1.1-0.1-2.4,0.3-2.5,1c0,0,0,0.1,0,0.1c-0.1-0.1-0.2-0.3-0.2-0.5c0.1-0.6,0.9-1,1.9-1c-0.3-0.4-0.4-1-0.2-1.4
						c0.3-0.5,0.8-0.7,1.3-0.5c-0.5-0.3-0.8-0.8-0.8-1.4C-16823.9-18890.8-16823.4-18890.8-16823.3-18890.8L-16823.3-18890.8z"/>
					<path id="path4041" inkscape:connector-curvature="0" class="st2" d="M-16811.3-18882.2l-0.3-0.1c-1-0.2-1.9-0.7-1.9-1.1
						c0-0.4,0.7-0.8,1.6-1c-0.1-0.2-0.1-0.2-0.2-0.4c-0.4-0.7-1-1.3-1.7-1.6c-0.3,0-0.6,0-0.9,0.1c-1.1,0.2-2.3,0.5-2.6,1
						c-0.5,1-0.4,2.2,0.4,2.9c0.7,0.9,1,1.2,0.6,1.7c-0.4,0.4-0.9,0.8-1.4,1.2c-0.4,0.3-0.6,0.7-1,0.7c-0.3-0.1-0.5-0.1-0.8-0.2
						c-0.3,0-0.6,0.2-0.7,0.4l-0.5-0.1c-0.5,0-0.9,0.4-1.1,1c-0.1,0.3-0.2,0.6-0.1,0.9c0.2,0.1,0.4,0.1,0.6,0.1
						c0.1-0.6,0.5-1.2,1-1.6c-0.3,0.5-0.4,1.1-0.4,1.7c0.2,0,0.5,0,0.7,0c0-0.4,0.7-1.9,1.4-1.8h0.2c-0.6,0.2-0.7,1.8-0.7,1.8
						c0.9,0.1,1.8,0.1,2.7,0c0.7-0.2,0.8-0.4,0.9-0.8c0-0.2,0.1-0.5,0.3-0.7c0.7-0.9,1.7-1.4,2.2-1l0.1,0.1
						c-0.3-0.4-0.3-0.8-0.1-1.1c0.5-0.3,1-0.3,1.5,0l0,0c-0.8-0.3-1.3-0.8-1.2-1.3S-16812-18882.2-16811.3-18882.2L-16811.3-18882.2
						z"/>
				</g>
			</g>
			<g id="use4043" transform="matrix(0.95406909,0,0,0.95406909,-999.0216,-977.4188)">
				<path id="path4124" inkscape:connector-curvature="0" class="st1" d="M-16817-18898c-0.1,0-0.4,0-0.4,0.1c0,0.2,0.1,0.3,0.2,0.5
					c0.5,0.5,0.5,0.8,0.4,0.9c-0.1,0.1,0,0.4-0.3-0.1c-0.4-0.7-1.3-1-2.1-0.7c-0.1,0-0.2,0-0.2,0.2c0,0.1,0.1,0.3,0.2,0.4
					c-0.5-0.1-1.1,0.1-1.4,0.5c-0.1,0.1,0,0.3,0.1,0.4c0,0.1,0.1,0.1,0.1,0.1c-0.7,0.4-1,1.2-1,1.9c0.3,1.8,2.2,2.7,5.1,2.3
					c1.8-0.2,3.6-0.7,5.2-1.3c1.1-0.4,2.3-0.8,3.8-1.2c2-0.7,4.2-0.6,6.2,0.4c0.7,0.3,1.2,1,1.5,1.7c0.1,0.5,0,1-0.3,1.3
					c-0.8,0.9-2,1.4-3.2,1.2c-1.4-0.1-2.8-0.2-4.2-0.5c-1.1-0.2-2.4-0.4-4.4-0.6c-1.5-0.2-3.1-0.2-4.6-0.1h-1
					c-0.9,0.1-1.8,0-2.7-0.1c-1.1-0.1-2.2-0.5-3.2-1.2c-0.1-0.2,0.5-0.4,1-0.5c0.2,0,0.3-0.2,0.3-0.4c0-0.1-0.1-0.2-0.3-0.3
					c-0.2-0.1-1-0.3-1-0.7c-0.1-0.5-0.2-1-0.4-1.5c0.2-0.4,0.3-0.9,0.1-1.4c0-0.2-0.2-0.4-0.3-0.6c-0.5-0.1-1.1,0-1.5,0.4
					c-0.5-0.2-1.1-0.3-1.7-0.4h-0.1c-0.6,0-1.3,0.2-1.9,0.4c-0.4-0.4-1-0.5-1.5-0.4c-0.2,0.1-0.3,0.3-0.3,0.6
					c-0.1,0.5-0.1,1,0.1,1.4l0.1,0.2c-0.1,0.5-0.1,0.9-0.1,1.4c0,0.3-0.8,0.6-1.1,0.6c-0.1,0-0.3,0.1-0.3,0.2c0,0.2,0.1,0.4,0.3,0.4
					c0.6,0.1,1,0.4,1,0.5c-0.1,0.4-0.9,0.8-1.1,0.9c-0.3,0.1-0.2,0.1-0.2,0.3c0,0.2,0.2,0.3,0.3,0.3c0.3,0,1,0.2,1.1,0.5
					c0,0.2-0.1,0.4-0.3,0.5c-1.4-0.1-2.9-0.5-4.2-1c-0.8-0.4-2.1-1.1-2.3-1.3c-0.8-0.6-1.5-1.3-2.1-2.1c-0.1-0.3-0.3-0.5-0.4-0.7
					c-0.3-0.3-0.7-0.5-1.2-0.6l-0.2-0.3c-0.3-0.4-1-0.5-2.2-0.3l-0.2-0.1c-0.7-0.5-1.7,0.3-1.8,0.4c-0.1,0.1-0.1,0.2,0,0.4
					c0.1,0.1,0.2,0.2,0.3,0.2c0.2,0,0.4,0,0.5,0c0.1,0.2,0.2,0.3,0.3,0.5l-0.4,0.2c-0.1,0.1-0.1,0.2,0,0.4c0,0.1,0.2,0.2,0.3,0.2
					c0.3,0,0.5,0,0.8,0.1l0.4,0.4l0.1,0.1c-0.2,0.1-0.4,0.2-0.5,0.2c-0.1,0.1-0.1,0.3,0,0.4c0,0.1,0.2,0.2,0.3,0.2
					c0.3,0,0.5,0,0.8,0.1l0.2,0.4c0.1,0.3,0.3,0.6,0.5,0.8c0.3,0.2,0.6,0.4,1,0.5c0.4,0.1,0.7,0.2,1,0.5l0.2,0.2l0.3,0.3
					c0.2,0.2,0.3,0.3,0.3,0.3s-0.1,0.1-0.2,0.2c-0.1,0.1-0.1,0.3,0,0.4c0.1,0.1,0.2,0.2,0.3,0.2c0.8-0.2,1.3,0,1.4,0.2
					c0.1,0.2-0.1,0.3-0.5,0.5c-0.1,0.1-0.2,0.3-0.1,0.4c0.1,0.1,0.2,0.2,0.4,0.1c0.9-0.3,1.6-0.2,1.7,0c0.1,0.2-0.2,0.4-0.7,0.7
					c-0.1,0.1-0.2,0.3-0.1,0.4c0.1,0.1,0.3,0.2,0.4,0.1c1-0.4,1.7-0.4,1.9-0.1c0.1,0.3-0.2,0.7-0.9,1.1c-0.1,0,0,0.1-0.1,0.2
					c0,0.2,0.1,0.3,0.3,0.3c0.1,0,0.1,0,0.2,0h0.1c0.6-0.4,1.3-0.5,1.9-0.3c0.1,0.1,0.2,0.1,0.3,0.2c0,0,0.1-0.1-0.2,0.2
					c-4.3,3.7-5.4,4.8-6.8,5.3h-0.2c-0.2-0.1-0.5-0.1-0.7-0.1c-0.4,0-0.7,0.2-0.9,0.5h-0.4c-0.5,0-1,0.2-1.4,1.1
					c-0.1,0.3-0.2,0.7-0.2,1.1c0,0.1,0.1,0.2,0.2,0.3c0.2,0.1,0.5,0.1,0.7,0.1c0.2,0,0.3-0.1,0.3-0.3c0-0.1,0.1-0.2,0.1-0.3
					c0,0.1,0,0.2,0,0.4c0,0.1,0.1,0.3,0.3,0.3c0.3,0,0.5,0,0.8,0c0.1,0,0.2-0.1,0.2-0.1c0.1-0.1,0-0.1,0-0.2c0.1-0.3,0.2-0.7,0.4-1
					c-0.1,0.3-0.1,0.7-0.2,1c0,0.2,0.1,0.3,0.3,0.3c1,0.1,2,0.1,3-0.1c0.8-0.2,0.9-0.5,1.1-0.8l0.1-0.2c0.1-0.3,0.3-0.5,0.6-0.7
					c0.3-0.3,0.6-0.5,1-0.4c0.1,0,0.1,0.1,0.2,0.2c0,0.1,0.2,0.2,0.3,0.2c0.1,0,0.3-0.1,0.3-0.2c0.2-0.7,0.5-1.1,0.8-1
					c0.2,0,0.3,0.3,0.4,0.6c0,0.2,0.2,0.3,0.4,0.3c0.1,0,0.2-0.1,0.3-0.3c0.1-0.9,0.4-1.4,0.7-1.4c0.2,0,0.4,0.3,0.5,0.9
					c0.1,0.2,0.2,0.2,0.4,0.2c0.1,0,0.2-0.1,0.2-0.2c-0.1-0.5,0.1-1.1,0.5-1.5c0.1-0.1,0.2-0.1,0.3-0.2c0.3,0,0.6,0.4,0.7,1.1
					c0,0.2,0.2,0.3,0.3,0.3c0.2,0,0.3-0.2,0.3-0.3c0,0,0,0,0,0v-0.1c-0.1-0.5,0.1-1.1,0.4-1.5c0.1-0.1,0.2-0.2,0.4-0.2
					c0.3,0,0.7,0.3,0.9,0.8c0.1,0.2,0.2,0.2,0.4,0.2c0.1,0,0.2-0.2,0.2-0.3c0-0.4,0.6-0.8,1.5-0.9l0.3,0c0.5,0,1-0.1,1.5-0.3
					c0.4-0.3,0.8-0.6,1.1-1c0.7-0.9,1.6-1.6,2.6-2.1c0.9-0.3,1.8-0.6,2.7-0.8c-0.3,0.1-0.5,0.3-0.7,0.5c-0.6,1.1-0.4,2.4,0.4,3.3
					l0.1,0.2c0.6,0.8,0.7,1,0.5,1.1c-0.3,0.3-0.7,0.6-1,0.8c-0.3,0.2-0.3,0.3-0.4,0.3l-0.3,0.3c-0.2,0.2-0.4,0.5-0.5,0.5h-0.2
					c-0.2-0.1-0.4-0.1-0.6-0.1c-0.3,0-0.7,0.1-0.8,0.4h-0.3c-0.6,0-1.2,0.4-1.4,1c-0.1,0.3-0.2,0.7-0.2,1c0,0.1,0.1,0.2,0.2,0.3
					c0.2,0.1,0.5,0.1,0.7,0.1c0.1,0,0.3-0.1,0.3-0.2c0,0.1,0.1,0.2,0.3,0.2c0.3,0,0.5,0,0.8,0c0.1,0,0.2-0.1,0.2-0.1
					c0-0.1,0-0.2,0-0.2c0-0.3,0.2-0.5,0.3-0.8c-0.1,0.3-0.1,0.5-0.1,0.8c0,0.2,0.1,0.3,0.3,0.3c0,0,0,0,0,0s0.7,0.1,1.4,0.1
					c0.5,0,0.9,0,1.4-0.1c0.8-0.2,1-0.5,1.1-1c0,0,0,0,0-0.1c0-0.2,0.1-0.4,0.2-0.5c0.7-0.8,1.5-1.2,1.8-1l0.1,0.1
					c0.1,0.1,0.3,0.1,0.4-0.1c0.1-0.1,0.1-0.2,0-0.3c-0.2-0.3-0.2-0.6-0.1-0.7c0.1-0.1,0.6-0.1,1.1,0.1c0.1,0,0.2,0,0.2,0
					c0.2-0.1,0.2-0.3,0.2-0.4c0-0.1-0.1-0.1-0.2-0.2c-0.6-0.3-1.1-0.7-1-1c0.1-0.3,0.6-0.5,1.2-0.6c0.2,0,0.3-0.1,0.3-0.3
					c0-0.1-0.1-0.3-0.2-0.3l-0.3-0.1c-0.6-0.1-1.2-0.3-1.6-0.8c0-0.2,0.4-0.5,1.3-0.7c0.4,0.1,0.8,0.3,1.2,0.6
					c0.8,0.5,1.6,0.9,2.5,1.1c1.5,0.3,3,0.5,4.6,0.5c0.7,0.5,1,1.4,0.7,2.2c-0.1,0.3-0.4,0.8-0.6,0.8h-0.2c-0.2-0.1-0.5-0.1-0.7-0.1
					c-0.4,0-0.7,0.1-1,0.4h-0.3c-0.6,0-1.2,0.4-1.4,1c-0.1,0.3-0.2,0.7-0.2,1.1c0,0.1,0.1,0.2,0.2,0.3c0.2,0.1,0.5,0.1,0.7,0.1
					c0-0.2,0.2-0.3,0.3-0.2c0.1,0,0.2,0.1,0.2,0.2c0.3,0,0.6,0,0.9,0c0.1,0,0.2-0.1,0.2-0.1c0-0.1,0-0.2,0-0.3
					c0.1-0.4,0.2-0.7,0.5-1c-0.1,0.3-0.2,0.7-0.2,1c0,0.2,0.1,0.3,0.3,0.3c0,0,0,0,0,0c0.1,0,0.9,0.1,1.7,0.1c0.5,0,1,0,1.5-0.1
					c0.7-0.2,1.1-0.9,1.4-2.1c0-0.2,0.1-0.4,0.1-0.5c0-0.5-0.1-1.1-0.1-1.9c0-1.1,0.4-1.7,0.8-1.7h0.1c0.2,0,0.3-0.2,0.3-0.3
					c0-0.1-0.1-0.2-0.2-0.3c-0.8-0.2-1.1-0.5-1-0.6c0-0.1,0.2-0.3,0.6-0.4h0.1c0.2-0.1,0.2-0.3,0.1-0.4c-0.1-0.1-0.2-0.2-0.3-0.2
					c-0.6,0.1-1.2,0-1.3-0.3c-0.1-0.3,0-0.5,0.3-0.8l0-0.1c0.1-0.1,0-0.3-0.1-0.4c-0.1-0.1-0.3-0.1-0.4-0.1
					c-0.7,0.4-1.4,0.7-2.2,0.8h-0.3c-0.5,0-1-0.1-1.5-0.3c-0.8-0.3-1.5-0.8-2-1.5c-0.2-0.2-0.4-0.4-0.6-0.6l-0.3-0.2l0.5,0
					c1.1,0,2.2,0,3.3,0.1l0,0c2.4,0.1,4.6-0.7,5.5-2.3c0.7-1.1,0.7-2.4,0-3.5c-0.9-1.5-2.5-2.5-4.2-2.8c-1.9-0.3-3.8-0.2-5.7,0.3
					c-0.8,0.2-1.7,0.5-2.8,0.8c-1.9,0.7-3.9,1.3-5.9,1.7c-0.8,0.2-1.6,0.1-2.3-0.2c-0.1-0.1-0.2-0.2-0.2-0.4c0-0.1,0.4-0.4,1.5-0.4
					c4.8,0,6.1-2.5,6.2-2.8c0.1-0.2,0-0.4-0.2-0.4c-0.1-0.1-0.2,0-0.3,0c-0.9,0.5-2,0.8-3.1,0.8c-0.2-0.1-0.3-0.2-0.5-0.4
					C-16815.8-18897.7-16816.4-18898-16817-18898z M-16827.3-18891.3c0.4,0.2,0.8,0.2,1.2,0.2c0,0.1-0.1,0.2-0.1,0.3
					c-0.1,0.1-0.1,0.2-0.2,0.3c-0.2,0.5-0.4,0.7-0.8,0.7c-0.5,0-0.6-0.3-0.8-0.8c0-0.1-0.1-0.2-0.2-0.3c-0.1-0.1-0.1-0.2-0.1-0.3
					C-16828-18891.1-16827.6-18891.2-16827.3-18891.3L-16827.3-18891.3L-16827.3-18891.3z"/>
				<g id="g4126">
					<path id="path4128" inkscape:connector-curvature="0" class="st2" d="M-16817.4-18897.9c0.7,0.7,0.7,1.3,0.4,1.4
						c-0.2,0.1-0.4,0-0.5-0.1c-0.4-0.6-1.1-0.8-1.8-0.6c0,0,0.8,0.3,0.7,0.7c0,0.1-0.1,0.1-0.2,0.1c-0.1,0-0.2,0-0.2,0
						c-0.5-0.3-1.1-0.2-1.5,0.3c0,0,0.6-0.1,0.7,0.1c-0.9,0.4-1.6,1.1-1.5,2c0.3,1.9,2.5,2.3,4.8,2.1c2.7-0.3,5.1-1.5,8.9-2.6
						c3.9-1.1,7.4,0.1,8,2.3c0.3,1.2-0.7,2.9-3.9,2.8c-3.2-0.1-3.9-0.6-8.6-1.1c-1.9-0.2-3.7-0.2-5.6,0c-0.9,0.1-1.9,0-2.8-0.1
						c-1-0.1-3.4-0.6-3.4-1.3c0-0.7,1.2-0.8,1.2-0.8s-1.2-0.2-1.3-1c0-0.5-0.2-1.1-0.3-1.6l0.1-0.1c0.3-0.5,0.2-1.1-0.1-1.5
						c-0.5,0-0.9,0.1-1.3,0.5c-0.6-0.3-1.2-0.5-1.9-0.6c-0.7,0-1.3,0.2-1.9,0.5c-0.4-0.4-0.9-0.5-1.4-0.5c-0.3,0.4-0.4,1-0.1,1.5
						c0,0.1,0.1,0.2,0.2,0.3c-0.2,0.5-0.3,1-0.3,1.5c0,0.6-1.2,1-1.2,1c0,0,1.3,0.3,1.2,0.9c-0.1,0.7-1.3,1.1-1.3,1.1
						s1.2,0.1,1.3,0.7c0.1,0.3-0.2,0.5-0.5,0.8c-1.5-0.1-3.1-0.4-4.5-1c-0.8-0.4-1.6-0.8-2.4-1.3c-0.8-0.6-1.5-1.3-2.1-2.1
						c-0.1-0.2-0.2-0.5-0.4-0.7c-0.3-0.3-0.7-0.5-1.2-0.5c-0.1-0.2-0.3-0.4-0.3-0.4c-0.3-0.4-1.3-0.3-2.1-0.1
						c-0.1-0.1-0.1-0.2-0.2-0.2c-0.5-0.4-1.4,0.4-1.4,0.4s0.7-0.1,0.8,0.1l0.6-0.2c-0.2,0.1-0.3,0.3-0.3,0.6l0.1,0.2
						c0.7-0.2,1.4-0.3,2.2-0.2c-0.4,0.1-0.7,0.3-1,0.5l-0.1-0.1c-0.6-0.4-1.6,0.3-1.6,0.3c0.3,0,0.7,0,1,0.2l0.1,0.1l0.5-0.4
						c-0.1,0.2-0.2,0.5-0.2,0.7l0.1,0.1l0.2,0.2c0,0,2.2-0.6,2.8,0c-0.6-0.1-1.2,0.1-1.7,0.4c-0.6-0.4-1.6,0.3-1.6,0.3
						c0.3,0,0.7,0,1,0.2l0.1,0.1l0.4-0.3c-0.1,0.2-0.2,0.5-0.1,0.7c0.1,0.3,0.3,0.5,0.5,0.7c0.5,0.5,1.3,0.3,1.9,1l0.5,0.4
						c0.2,0.1,0.3,0.3,0.4,0.6c0,0.2-0.1,0.4-0.3,0.5c0.8-0.2,1.6,0,1.7,0.4c0.1,0.4-0.1,0.6-0.6,1c1-0.4,1.9-0.3,2.1,0.1
						c0.2,0.4-0.2,0.8-0.7,1.2c1-0.5,2-0.5,2.3,0c0.3,0.5-0.2,1-0.9,1.5h0.1c0.7-0.4,1.5-0.5,2.2-0.3c0.8-0.5,1.6-1.1,2.2-1.8
						c-0.5,1-1.2,1.9-2,2.7c-0.3,0.3-2.1,1.8-2.4,2.1c-1.6,1.2-3.2,2.6-3.3,2.6c-0.4,0.2-0.9,0.5-1.2,0.5c-0.3-0.1-0.6-0.1-0.9-0.2
						c-0.3,0-0.6,0.2-0.7,0.5c-0.2,0-0.5-0.1-0.6-0.1c-0.4,0-0.8,0.5-1.1,1.1c-0.1,0.3-0.2,0.6-0.1,1c0.2,0.1,0.4,0.1,0.6,0.1
						c0.2-0.7,0.6-1.4,1.2-1.8c-0.3,0.6-0.4,1.2-0.5,1.8c0.3,0,0.5,0,0.8,0c0-0.5,0.7-2,1.5-1.9h0.2c-0.7,0.2-0.8,1.9-0.8,1.9
						c1,0.1,1.9,0.1,2.9-0.1c0.8-0.2,0.7-0.4,1-0.9c0.1-0.3,0.3-0.5,0.6-0.7c0.3-0.4,0.8-0.6,1.3-0.5c0.2,0.1,0.3,0.2,0.4,0.4
						c0.2-0.8,0.6-1.3,1.1-1.3c0.4,0.1,0.6,0.4,0.7,0.9c0.1-1,0.5-1.7,1-1.7c0.5,0,0.7,0.5,0.8,1.1c0-1,0.4-1.9,1-1.9
						c0.6,0,1,0.6,1.1,1.4v-0.1c-0.1-1.1,0.4-2.1,1.1-2.1c0.6,0.1,1,0.5,1.2,1c0-0.6,0.8-1.1,1.8-1.2h0.4c0.5,0,0.9,0,1.4-0.2
						c1.1-0.7,1.4-1.9,3.8-3.1c1-0.4,2.1-0.7,3.1-1c1-0.3,2-0.4,3-0.4h0.1c0.3,0.1,0.5,0.2,0.7,0.4c0.6,0.5,1.1,1.2,1.5,1.8
						c0.2,0.4,0.1,0.2,0.8,0.7c0.8,0.5,1.6,0.8,2.4,1.1c1.5,0.3,3,0.5,4.5,0.6h0.1c0.9,0.6,1.2,1.6,0.9,2.6
						c-0.2,0.4-0.5,0.8-0.9,0.8c-0.3-0.1-0.6-0.1-0.9-0.2c-0.3,0-0.6,0.2-0.8,0.4l-0.5-0.1c-0.5,0-0.9,0.5-1.2,1
						c-0.1,0.3-0.2,0.6-0.2,0.9c0.2,0.1,0.4,0.1,0.6,0.1c0.1-0.7,0.6-1.4,1.2-1.8c-0.3,0.5-0.4,1.1-0.5,1.7c0.3,0,0.5,0,0.8,0
						c0-0.5,0.7-1.9,1.5-1.9h0.2c-0.7,0.2-0.8,1.9-0.8,1.9c1.1,0.1,2.1,0.1,3.2,0c0.8-0.2,1.1-1.5,1.2-1.9c0-0.2,0.1-0.3,0.1-0.5
						c0-0.5-0.1-1.2-0.1-1.9c0-1.1,0.4-2,1.1-2h0.1c-0.8-0.2-1.3-0.5-1.3-0.9h0c0-0.3,0.3-0.5,0.7-0.6c-0.7,0.1-1.4,0-1.6-0.4
						c-0.2-0.4,0-0.9,0.3-1.2c-0.7,0.4-1.5,0.6-2.3,0.7h-0.3c-0.5,0-1.1-0.1-1.6-0.2c-1.4-0.4-2-1.5-2.7-2.2
						c-0.3-0.4-0.7-0.6-1.1-0.8c0,0-0.1-0.1,0.8,0s1.5,0.2,4,0.3c4,0.2,6.8-2.5,5.2-5.3c-1.6-2.8-5.9-3.4-9.5-2.5
						c-2.2,0.6-4.9,1.8-8.7,2.6c-0.8,0.2-1.7,0.1-2.5-0.2c-0.4-0.2-0.9-1.2,1.4-1.2c4.6,0,5.8-2.3,5.9-2.6c-1,0.5-2.2,0.8-3.3,0.8
						c-0.1,0-0.1,0-0.2,0C-16816.1-18897-16816.1-18897.7-16817.4-18897.9L-16817.4-18897.9z M-16799.2-18884.5c0,0,0.1,0,0.1,0
						L-16799.2-18884.5C-16799.2-18884.5-16799.2-18884.5-16799.2-18884.5z M-16829.1-18894.4c0.1,0,0.1,0,0.2,0
						c0.6,0,0.8,0.2,0.8,0.2c-0.1,0.4-0.4,0.7-0.8,0.6c0,0,0,0,0,0c-0.3,0-0.6-0.1-0.8-0.3h0c-0.1-0.1-0.2-0.2-0.3-0.4
						C-16829.8-18894.4-16829.4-18894.5-16829.1-18894.4L-16829.1-18894.4z M-16825.8-18894.4
						C-16825.8-18894.4-16825.8-18894.4-16825.8-18894.4c0.3,0,0.6,0,0.9,0.1c-0.1,0.2-0.2,0.3-0.3,0.4c-0.2,0.2-0.5,0.3-0.8,0.3
						c-0.4,0.1-0.8-0.2-0.9-0.6c0,0,0,0,0,0c0.2-0.1,0.5-0.2,0.8-0.2C-16826-18894.4-16825.9-18894.4-16825.8-18894.4
						L-16825.8-18894.4z M-16828.3-18892.9C-16828.3-18892.9-16828.3-18892.9-16828.3-18892.9
						C-16828.3-18892.9-16828.3-18892.9-16828.3-18892.9c0,0,0.6,0.1,0.8,0.1c0.2,0,0.8-0.1,0.8-0.1c0,0,0.1,0,0.1,0.1c0,0,0,0,0,0
						l-0.8,0.5h-0.1l-0.9-0.5C-16828.4-18892.8-16828.4-18892.9-16828.3-18892.9C-16828.3-18892.9-16828.3-18892.9-16828.3-18892.9
						L-16828.3-18892.9z M-16829-18891.9c0.5,0.3,1.1,0.3,1.5,0c0.5,0.3,1.1,0.3,1.5,0c0.1-0.1,0,0.6-0.3,1
						c-0.4,0.5-0.5,1.3-1.3,1.2l0,0c-0.8,0-1-0.7-1.3-1.2C-16829.1-18891.5-16829.1-18892-16829-18891.9L-16829-18891.9z
						 M-16823.3-18890.8c-0.1,0.1-0.2,0.2-0.2,0.3c-0.1,0.5,0.5,1.2,1.3,1.8c-1-0.2-1.5,0-1.8,0.3v0c-0.3,0.3,0.1,1,0.4,1.6
						c-1.1-0.1-2.4,0.3-2.5,1c0,0,0,0.1,0,0.1c-0.1-0.1-0.2-0.3-0.2-0.5c0.1-0.6,0.9-1,1.9-1c-0.3-0.4-0.4-1-0.2-1.4
						c0.3-0.5,0.8-0.7,1.3-0.5c-0.5-0.3-0.8-0.8-0.8-1.4C-16823.9-18890.8-16823.4-18890.8-16823.3-18890.8L-16823.3-18890.8z"/>
					<path id="path4130" inkscape:connector-curvature="0" class="st2" d="M-16811.3-18882.2l-0.3-0.1c-1-0.2-1.9-0.7-1.9-1.1
						c0-0.4,0.7-0.8,1.6-1c-0.1-0.2-0.1-0.2-0.2-0.4c-0.4-0.7-1-1.3-1.7-1.6c-0.3,0-0.6,0-0.9,0.1c-1.1,0.2-2.3,0.5-2.6,1
						c-0.5,1-0.4,2.2,0.4,2.9c0.7,0.9,1,1.2,0.6,1.7c-0.4,0.4-0.9,0.8-1.4,1.2c-0.4,0.3-0.6,0.7-1,0.7c-0.3-0.1-0.5-0.1-0.8-0.2
						c-0.3,0-0.6,0.2-0.7,0.4l-0.5-0.1c-0.5,0-0.9,0.4-1.1,1c-0.1,0.3-0.2,0.6-0.1,0.9c0.2,0.1,0.4,0.1,0.6,0.1
						c0.1-0.6,0.5-1.2,1-1.6c-0.3,0.5-0.4,1.1-0.4,1.7c0.2,0,0.5,0,0.7,0c0-0.4,0.7-1.9,1.4-1.8h0.2c-0.6,0.2-0.7,1.8-0.7,1.8
						c0.9,0.1,1.8,0.1,2.7,0c0.7-0.2,0.8-0.4,0.9-0.8c0-0.2,0.1-0.5,0.3-0.7c0.7-0.9,1.7-1.4,2.2-1l0.1,0.1
						c-0.3-0.4-0.3-0.8-0.1-1.1c0.5-0.3,1-0.3,1.5,0l0,0c-0.8-0.3-1.3-0.8-1.2-1.3S-16812-18882.2-16811.3-18882.2L-16811.3-18882.2
						z"/>
				</g>
			</g>
		</g>
	</g>
	<g id="g4179">
		<g id="g4063">
			<path id="path10" inkscape:connector-curvature="0" d="M-17001.8-19027.2l0.1,18.2h1.5v-6.1h4.9c0.5,0,1,0,1.4-0.1l4.5,6.1h1.9
				l-4.9-6.5c2.6-0.8,4-2.8,4-5.8l0,0c0-1.8-0.6-5.9-6.4-5.9L-17001.8-19027.2L-17001.8-19027.2z M-16994.4-19025.8
				c1.2,0,2.4,0.5,3.3,1.4c0.7,0.9,1.1,2,1.1,3.1c0,3.9-3,4.7-5.5,4.8h-4.8v-9.2h5.5
				C-16994.7-19025.7-16994.5-19025.7-16994.4-19025.8L-16994.4-19025.8z"/>
			<path id="path14" inkscape:connector-curvature="0" d="M-16972.9-19032.7l-4.4,4.5h1.7l4.6-4.3L-16972.9-19032.7
				L-16972.9-19032.7z M-16970.5-19027.3l-12.2,0l0.1,18.2l12.7,0v-1.5l-11.2,0v-6.6l9.1,0v-1.4h-9.1v-7.2h10.6L-16970.5-19027.3
				L-16970.5-19027.3z"/>
			<path id="path18" inkscape:connector-curvature="0" d="M-16956.6-19017.9v1.4h7.1v3.9c-1.8,1.3-4.1,2-6.4,2l0,0
				c-4.3,0.1-7.9-3.4-8-7.7c0-2.1,0.8-4,2.3-5.4c1.5-1.5,3.5-2.3,5.6-2.3l0,0c2.2-0.1,4.4,0.7,6.1,2.2l0.2,0.2l1-1.1l-0.2-0.2
				c-2-1.7-4.5-2.7-7.1-2.6l0,0c-2.5,0-4.9,1-6.7,2.7c-1.8,1.7-2.8,4-2.8,6.5c0.1,5.1,4.4,9.2,9.5,9.1l0,0c2.8,0,5.6-0.9,7.8-2.6
				l0.1-0.1v-6.1L-16956.6-19017.9z"/>
			<path id="path20" inkscape:connector-curvature="0" d="M-16925-19027.4L-16925-19027.4c-2.5,0-4.9,1-6.7,2.7
				c-1.8,1.7-2.8,4-2.8,6.5c0.1,5.1,4.4,9.2,9.5,9.1c5.2,0.1,9.4-4,9.5-9.2c0-2.5-1-4.8-2.8-6.5
				C-16920.1-19026.5-16922.5-19027.4-16925-19027.4L-16925-19027.4z M-16925-19025.9L-16925-19025.9c4.3-0.1,7.9,3.3,8,7.6
				c-0.1,4.3-3.6,7.8-8,7.7c-4.3,0.1-7.9-3.3-8-7.6c0-2.1,0.8-4,2.3-5.4C-16929.2-19025.1-16927.1-19025.9-16925-19025.9
				L-16925-19025.9z"/>
			<path id="path24" inkscape:connector-curvature="0" d="M-16894.4-19027.3h-1.5l0,15.3l-12.5-15.2h-1.1l0.1,18.2h1.5l0-15.3
				l12.4,15.1l0.1,0.1h1L-16894.4-19027.3z"/>
			<path id="path4027" inkscape:connector-curvature="0" sodipodi:nodetypes="ccccc" d="M-16940.3-19027.2h-1.6l0.1,18.2h1.5
				L-16940.3-19027.2z"/>
		</g>
		<g id="g4091">
			<path id="path26" inkscape:connector-curvature="0" d="M-16984.8-19003.7l0,18.1l-14.8-18.1h-2.5l0,24.8h3.5l0-18.1l14.8,18.1
				h2.5l-0.1-24.8L-16984.8-19003.7z"/>
			<path id="path28" inkscape:connector-curvature="0" d="M-16962.1-19003.9c-3.4,0-6.7,1.3-9.2,3.7c-2.4,2.3-3.8,5.5-3.8,8.9
				c0.2,7,6,12.6,13,12.5c3.4,0,6.7-1.3,9.2-3.7c2.4-2.3,3.8-5.5,3.8-8.9C-16949.3-18998.4-16955.1-19004-16962.1-19003.9z
				 M-16962.2-19000.4c5.1-0.1,9.3,3.9,9.4,9c0,2.4-1,4.7-2.7,6.4c-1.8,1.7-4.2,2.7-6.6,2.7c0,0,0,0,0,0h-0.1c0,0,0,0,0,0
				c-2.5,0-4.8-0.9-6.6-2.6c-1.8-1.6-2.8-3.9-2.8-6.3C-16971.5-18996.4-16967.3-19000.5-16962.2-19000.4z"/>
			<path id="path32" inkscape:connector-curvature="0" d="M-16933.2-19003.6c-0.1,0-0.2,0-0.4,0h-9.8l0.1,24.8h3.5v-7.7h5.5
				c0.5,0,0.9,0,1.4,0l5.8,7.8h4.4l-6.5-8.7c3-1.3,4.6-4,4.6-7.8l0,0c0.1-2.1-0.7-4.2-2.1-5.8
				C-16928.4-19002.8-16930.8-19003.7-16933.2-19003.6L-16933.2-19003.6z M-16933.1-19000.1c1.4,0,2.7,0.6,3.7,1.5
				c0.8,1,1.2,2.2,1.2,3.4c0.1,1.5-0.5,3-1.6,4c-1.4,0.9-3,1.4-4.6,1.3h-5.4v-10.2h6.2
				C-16933.5-19000.1-16933.3-19000.1-16933.1-19000.1L-16933.1-19000.1z"/>
			<path id="path36" inkscape:connector-curvature="0" d="M-16897.4-19003.7l-9.4,15.5l-9.5-15.4h-2.6l0.1,24.8h3.5l0-16.7l8.6,14
				l8.5-14l0,16.7h3.5l0-24.8L-16897.4-19003.7z"/>
			<path id="path38" inkscape:connector-curvature="0" d="M-16876.9-19003.7h-2.4l-11.1,24.9h3.9l2.8-6.5h11.3l2.9,6.5h3.8
				L-16876.9-19003.7L-16876.9-19003.7z M-16878.1-18998.2l4.2,9.4l-8.4,0.1L-16878.1-18998.2z"/>
			<path id="path42" inkscape:connector-curvature="0" d="M-16844.4-19003.7l0,18.1l-14.8-18.1h-2.5l0.1,24.8h3.5l0-18.1l14.8,18.1
				h2.5l-0.1-24.8L-16844.4-19003.7z"/>
			<path id="path44" inkscape:connector-curvature="0" d="M-16825.3-19003.6c-0.2,0-0.3,0-0.5,0h0h-8.1l0.1,24.8h8.9
				c6.9-0.2,12.2-6,12-12.8C-16813.2-18998.3-16818.7-19003.6-16825.3-19003.6L-16825.3-19003.6z M-16830.4-19000.1h4.6
				c4.9,0,8.9,4,8.9,8.9c-0.1,4.7-3.7,8.6-8.3,9l-5.2,0L-16830.4-19000.1L-16830.4-19000.1z"/>
			
				<rect id="rect48" x="-16807.3" y="-19003.6" transform="matrix(1 -2.615471e-03 2.615471e-03 1 49.6135 -44.0193)" width="3.5" height="24.8"/>
			<path id="path50" inkscape:connector-curvature="0" d="M-16778.8-18982.3l-14.3,0v-6.9l11.6,0v-3.4l-11.6,0v-7.6l13.6,0v-3.5
				l-17.1,0l0.1,24.8l17.8,0L-16778.8-18982.3z"/>
		</g>
	</g>
</g>
</svg>
